<svg aria-hidden="true" style="position: absolute; width: 0; height: 0; overflow: hidden;" version="1.1" xmlns="http://www.w3.org/2000/svg" xmlns:xlink="http://www.w3.org/1999/xlink">
<defs>
<symbol id="icon-logo" viewBox="0 0 93 32">
<path fill="#fb7c2f" style="fill: var(--color1, #fb7c2f)" d="M14.452 5.161h17.548c4.561 0 8.258 3.697 8.258 8.258v10.323c0 4.561-3.697 8.258-8.258 8.258h-17.548c-4.561 0-8.258-3.697-8.258-8.258v-10.323c0-4.561 3.697-8.258 8.258-8.258z"></path>
<path fill="#fb7c2f" style="fill: var(--color1, #fb7c2f)" opacity="0.2" d="M8.258 0h17.548c4.561 0 8.258 3.697 8.258 8.258v10.323c0 4.561-3.697 8.258-8.258 8.258h-17.548c-4.561 0-8.258-3.697-8.258-8.258v-10.323c0-4.561 3.697-8.258 8.258-8.258z"></path>
<path fill="#000" style="fill: var(--color2, #000)" d="M23.88 21.234l1.327-1.456 2.857 4.995h3.834l-4.534-7.483 4.534-5.935h-3.999l-2.894 4.211-1.124 1.705v-5.916h-3.235v13.418h3.235v-3.539zM38.929 23.878c0.086 0.393 0.184 0.691 0.295 0.894h3.106v-0.157c-0.27-0.485-0.412-1.186-0.424-2.101v-4.414c-0.018-1.081-0.396-1.932-1.134-2.553s-1.742-0.931-3.013-0.931c-1.272 0-2.319 0.301-3.142 0.903-0.817 0.602-1.226 1.385-1.226 2.35h3.106c0-0.725 0.369-1.087 1.106-1.087 0.792 0 1.189 0.458 1.189 1.373v0.525h-0.958c-1.524 0-2.685 0.276-3.483 0.829s-1.198 1.37-1.198 2.451c0 0.86 0.329 1.576 0.986 2.147 0.657 0.565 1.456 0.848 2.396 0.848 1.026 0 1.825-0.359 2.396-1.078zM38.237 22.496c-0.252 0.166-0.571 0.249-0.958 0.249-0.295 0-0.538-0.086-0.728-0.258-0.19-0.178-0.286-0.409-0.286-0.691 0-0.971 0.541-1.456 1.622-1.456h0.903v1.594c-0.111 0.209-0.295 0.396-0.553 0.562zM52.89 19.861c0 1.548-0.35 2.786-1.051 3.714-0.694 0.922-1.634 1.382-2.82 1.382-0.915 0-1.668-0.335-2.258-1.005v4.654h-3.106v-13.805h2.903l0.092 0.922c0.596-0.737 1.379-1.106 2.35-1.106 1.229 0 2.184 0.455 2.866 1.364 0.682 0.903 1.023 2.147 1.023 3.732v0.148zM49.784 19.667c0-1.769-0.516-2.654-1.548-2.654-0.737 0-1.229 0.264-1.474 0.793v3.926c0.27 0.553 0.768 0.829 1.493 0.829 0.989 0 1.499-0.854 1.53-2.562v-0.332zM58.576 24.957c1.118 0 2.006-0.421 2.663-1.263l0.092 1.078h2.912v-9.971h-3.124v6.994c-0.301 0.51-0.808 0.765-1.521 0.765-0.829 0-1.244-0.427-1.244-1.281v-6.478h-3.106v6.46c0 1.192 0.28 2.107 0.839 2.746 0.565 0.633 1.395 0.949 2.488 0.949zM71.173 21.971c0-0.264-0.138-0.476-0.415-0.636s-0.802-0.326-1.576-0.498c-0.774-0.172-1.413-0.396-1.917-0.673-0.504-0.283-0.888-0.624-1.152-1.023s-0.396-0.857-0.396-1.373c0-0.915 0.378-1.668 1.134-2.258 0.635-0.5 1.434-0.791 2.397-0.871v-2.265h1.48v2.294c0.901 0.109 1.655 0.39 2.26 0.841 0.799 0.596 1.198 1.379 1.198 2.35h-3.115c0-0.799-0.421-1.198-1.262-1.198-0.326 0-0.599 0.092-0.82 0.276-0.221 0.178-0.332 0.402-0.332 0.673 0 0.276 0.135 0.501 0.405 0.673s0.7 0.313 1.29 0.424c0.596 0.111 1.118 0.243 1.567 0.396 1.499 0.516 2.249 1.441 2.249 2.774 0 0.909-0.405 1.65-1.216 2.221-0.605 0.43-1.346 0.698-2.223 0.804v2.274h-1.48v-2.245c-0.627-0.054-1.199-0.2-1.715-0.437-0.67-0.307-1.192-0.725-1.567-1.253s-0.562-1.084-0.562-1.668h2.903c0.012 0.461 0.166 0.799 0.461 1.014 0.295 0.209 0.673 0.313 1.133 0.313 0.424 0 0.74-0.086 0.949-0.258 0.215-0.172 0.323-0.396 0.323-0.673zM80.278 14.801v-2.479h-3.106v2.479h-1.272v2.156h1.272v4.949c0 1.026 0.255 1.791 0.765 2.295s1.299 0.756 2.368 0.756c0.608 0 1.192-0.089 1.751-0.267v-2.221c-0.209 0.037-0.467 0.055-0.774 0.055-0.399 0-0.667-0.074-0.802-0.221s-0.203-0.409-0.203-0.783v-4.562h1.64v-2.156h-1.64zM89.798 24.772c-0.111-0.203-0.209-0.501-0.295-0.894-0.571 0.719-1.37 1.078-2.396 1.078-0.94 0-1.739-0.283-2.396-0.848-0.657-0.571-0.986-1.287-0.986-2.147 0-1.081 0.399-1.898 1.198-2.451s1.96-0.829 3.483-0.829h0.958v-0.525c0-0.915-0.396-1.373-1.189-1.373-0.737 0-1.106 0.363-1.106 1.087h-3.106c0-0.965 0.408-1.748 1.226-2.35 0.823-0.602 1.871-0.903 3.142-0.903s2.276 0.31 3.013 0.931c0.737 0.62 1.115 1.471 1.133 2.553v4.414c0.012 0.915 0.154 1.616 0.424 2.101v0.157h-3.106zM87.853 22.745c0.387 0 0.706-0.083 0.958-0.249 0.258-0.166 0.442-0.353 0.553-0.562v-1.594h-0.903c-1.081 0-1.622 0.485-1.622 1.456 0 0.283 0.095 0.513 0.286 0.691 0.19 0.172 0.433 0.258 0.728 0.258z"></path>
</symbol>
</defs>
</svg>
