<svg width="250" height="87" viewBox="0 0 250 87" fill="none" xmlns="http://www.w3.org/2000/svg">
<rect x="16.6667" y="13.8889" width="91.6667" height="72.2222" rx="8" fill="#FB7C2F"/>
<rect width="91.6667" height="72.2222" rx="8" fill="#FB7C2F" fill-opacity="0.2"/>
<path fill-rule="evenodd" clip-rule="evenodd" d="M64.2597 57.1392L67.8307 53.2211L75.5181 66.6618H85.8342L73.6335 46.5256L85.8342 30.5555H75.0718L67.2851 41.8883L64.2597 46.476V30.5555H55.5555V66.6618H64.2597V57.1392ZM104.756 64.2563C104.987 65.3144 105.252 66.1162 105.549 66.6618H113.906V66.2402C113.179 64.9342 112.799 63.0495 112.765 60.5862V48.7078C112.716 45.7982 111.699 43.5085 109.715 41.8387C107.731 40.169 105.028 39.3341 101.606 39.3341C98.1841 39.3341 95.3653 40.1442 93.15 41.7643C90.9513 43.3845 89.8519 45.4923 89.8519 48.0879H98.2089C98.2089 46.1371 99.2008 45.1617 101.185 45.1617C103.317 45.1617 104.384 46.3933 104.384 48.8566V50.2701H101.805C97.7046 50.2701 94.5801 51.0141 92.4309 52.502C90.2817 53.9899 89.2071 56.1886 89.2071 59.0983C89.2071 61.4128 90.0916 63.3388 91.8605 64.8763C93.6295 66.3973 95.7787 67.1577 98.3081 67.1577C101.069 67.1577 103.218 66.1906 104.756 64.2563ZM102.896 60.5366C102.218 60.983 101.358 61.2062 100.317 61.2062C99.5232 61.2062 98.8702 60.9747 98.3577 60.5118C97.8452 60.0324 97.5889 59.4124 97.5889 58.6519C97.5889 56.0399 99.0438 54.7338 101.953 54.7338H104.384V59.0239C104.086 59.586 103.59 60.0902 102.896 60.5366ZM142.325 53.4443C142.325 57.6104 141.383 60.9416 139.498 63.438C137.63 65.9178 135.1 67.1577 131.91 67.1577C129.446 67.1577 127.421 66.2567 125.834 64.4547V76.9778H117.477V39.8301H125.289L125.537 42.3099C127.14 40.326 129.248 39.3341 131.86 39.3341C135.167 39.3341 137.737 40.5575 139.572 43.0043C141.407 45.4345 142.325 48.7822 142.325 53.0475V53.4443ZM133.968 52.9235C133.968 48.1623 132.579 45.7817 129.802 45.7817C127.818 45.7817 126.495 46.4925 125.834 47.9143V58.4784C126.562 59.9662 127.901 60.7102 129.851 60.7102C132.513 60.7102 133.885 58.4122 133.968 53.8163V52.9235ZM157.626 67.1577C160.635 67.1577 163.024 66.0253 164.793 63.7604L165.04 66.6618H172.877V39.8301H164.47V58.6519C163.66 60.0241 162.296 60.7102 160.378 60.7102C158.147 60.7102 157.031 59.5612 157.031 57.2632V39.8301H148.674V57.2136C148.674 60.4209 149.426 62.8842 150.93 64.6035C152.451 66.3063 154.683 67.1577 157.626 67.1577ZM191.525 59.1231C191.525 58.4122 191.153 57.8419 190.409 57.412C189.665 56.9822 188.252 56.5358 186.169 56.0729C184.086 55.61 182.366 55.0066 181.011 54.2627C179.655 53.5022 178.622 52.5846 177.911 51.51C177.2 50.4355 176.844 49.2038 176.844 47.8151C176.844 45.3518 177.861 43.3266 179.895 41.7395C181.602 40.393 183.752 39.6118 186.346 39.3959V33.3019H190.329V39.4753C192.755 39.7697 194.782 40.5245 196.41 41.7395C198.559 43.3432 199.634 45.451 199.634 48.0631H191.252C191.252 45.9139 190.12 44.8393 187.855 44.8393C186.979 44.8393 186.243 45.0873 185.648 45.5833C185.053 46.0627 184.755 46.6661 184.755 47.3935C184.755 48.1375 185.119 48.7409 185.846 49.2038C186.574 49.6667 187.731 50.047 189.318 50.3445C190.922 50.6421 192.327 50.9976 193.534 51.4109C197.568 52.7996 199.584 55.2876 199.584 58.8751C199.584 61.3219 198.493 63.314 196.311 64.8515C194.682 66.0081 192.688 66.7296 190.329 67.0162V73.1347H186.346V67.0932C184.659 66.9477 183.121 66.5559 181.73 65.9178C179.928 65.0912 178.522 63.967 177.514 62.5453C176.506 61.1235 176.001 59.6273 176.001 58.0568H183.813C183.846 59.2967 184.259 60.206 185.053 60.7846C185.846 61.3467 186.863 61.6277 188.103 61.6277C189.244 61.6277 190.095 61.3963 190.657 60.9334C191.236 60.4705 191.525 59.8671 191.525 59.1231ZM216.026 39.8301V33.1594H207.669V39.8301H204.247V45.6329H207.669V58.9495C207.669 61.7104 208.355 63.7686 209.727 65.1243C211.099 66.4799 213.224 67.1577 216.1 67.1577C217.737 67.1577 219.308 66.918 220.812 66.4386V60.4622C220.25 60.5614 219.556 60.611 218.729 60.611C217.654 60.611 216.935 60.4126 216.572 60.0158C216.208 59.6191 216.026 58.9165 216.026 57.908V45.6329H220.44V39.8301H216.026ZM241.643 66.6618C241.345 66.1162 241.081 65.3144 240.849 64.2563C239.312 66.1906 237.163 67.1577 234.402 67.1577C231.872 67.1577 229.723 66.3973 227.954 64.8763C226.185 63.3388 225.301 61.4128 225.301 59.0983C225.301 56.1886 226.376 53.9899 228.525 52.502C230.674 51.0141 233.798 50.2701 237.898 50.2701H240.477V48.8566C240.477 46.3933 239.411 45.1617 237.278 45.1617C235.295 45.1617 234.303 46.1371 234.303 48.0879H225.946C225.946 45.4923 227.045 43.3845 229.244 41.7643C231.459 40.1442 234.278 39.3341 237.7 39.3341C241.122 39.3341 243.825 40.169 245.809 41.8387C247.793 43.5085 248.81 45.7982 248.859 48.7078V60.5862C248.892 63.0495 249.273 64.9342 250 66.2402V66.6618H241.643ZM236.411 61.2062C237.452 61.2062 238.312 60.983 238.99 60.5366C239.684 60.0902 240.18 59.586 240.477 59.0239V54.7338H238.047C235.138 54.7338 233.683 56.0399 233.683 58.6519C233.683 59.4124 233.939 60.0324 234.452 60.5118C234.964 60.9747 235.617 61.2062 236.411 61.2062Z" fill="black"/>
</svg>
