
<svg aria-hidden="true" style="position:absolute;width:0;height:0" xmlns="http://www.w3.org/2000/svg" overflow="hidden">
  <defs>
  <symbol id="alco" viewBox="0 0 56 56">
<path d="M13.5353 4.72461C13.0764 4.72461 12.7043 5.09659 12.7043 5.55553V5.90706C12.7043 6.36589 13.0763 6.73798 13.5353 6.73798C13.9941 6.73798 14.3662 6.366 14.3662 5.90706V5.55553C14.3661 5.09659 13.9941 4.72461 13.5353 4.72461Z" />
<path d="M11.1192 7.4917H10.7678C10.309 7.4917 9.93689 7.86368 9.93689 8.32262C9.93689 8.78145 10.3089 9.15354 10.7678 9.15354H11.1192C11.5781 9.15354 11.9502 8.78156 11.9502 8.32262C11.9502 7.86379 11.5782 7.4917 11.1192 7.4917Z" />
<path d="M12.4144 6.02695L12.1657 5.77845C11.8413 5.45404 11.3151 5.45404 10.9907 5.77856C10.6663 6.10307 10.6663 6.62917 10.9908 6.95357L11.2394 7.20207C11.4016 7.36428 11.6143 7.44543 11.8269 7.44543C12.0395 7.44543 12.2523 7.36428 12.4145 7.20196C12.7389 6.87745 12.7389 6.35135 12.4144 6.02695Z" />
<path d="M12.4144 9.44358C12.0899 9.11907 11.5638 9.11907 11.2393 9.44358L10.9907 9.69219C10.6662 10.0166 10.6662 10.5428 10.9907 10.8672C11.1529 11.0294 11.3655 11.1106 11.5783 11.1106C11.7909 11.1106 12.0035 11.0294 12.1658 10.8672L12.4144 10.6186C12.739 10.2942 12.739 9.76799 12.4144 9.44358Z" />
<path d="M49.7966 6.85344H21.7263C21.4095 5.07598 20.5219 3.44805 19.1799 2.20795C17.6392 0.784109 15.6344 0 13.5353 0C8.94603 0 5.2124 3.73363 5.2124 8.32289C5.2124 12.9122 8.94603 16.6458 13.5353 16.6458C14.3779 16.6458 15.2059 16.5178 16.0049 16.269C17.2569 17.4502 18.8082 18.3339 20.5601 18.7895C21.6919 19.0839 22.5518 20.0179 22.7506 21.1692L23.8067 27.2869C24.1799 29.4483 25.3826 31.322 27.1934 32.5629C28.5664 33.5037 29.386 35.0378 29.386 36.6667V49.1358C28.7525 49.5373 28.3467 50.243 28.3467 51.0216C28.3467 51.0453 28.3471 51.0689 28.3478 51.0926C26.2718 51.5169 24.5618 51.9077 23.2638 52.2545C22.3795 52.4907 21.7124 52.6991 21.2242 52.8915C20.7695 53.0707 19.9229 53.4044 19.9229 54.1789C19.9229 55.2196 21.276 55.3972 22.3632 55.5401C23.2972 55.6628 24.5912 55.765 26.2093 55.844C28.9428 55.9776 31.712 55.9998 31.7397 56C31.7417 56 31.7438 56 31.7459 56C31.748 56 31.7502 56 31.7521 56C31.7798 55.9998 34.549 55.9775 37.2825 55.844C38.9006 55.765 40.1946 55.6628 41.1286 55.5401C42.2158 55.3972 43.5689 55.2196 43.5689 54.1789C43.5689 53.3558 42.8098 52.9312 40.0374 52.2039C38.3574 51.7632 36.2644 51.3183 34.7613 51.0147C34.7595 50.4148 34.521 49.8541 34.1058 49.4417V36.6665C34.1058 35.0377 34.9255 33.5036 36.2985 32.5628C38.1092 31.3219 39.3119 29.4482 39.6851 27.2868L40.7412 21.1691C40.94 20.0178 41.7998 19.0837 42.9317 18.7894C46.7271 17.8024 49.5817 14.8092 50.4845 11.1234C50.488 11.1092 50.4917 11.0952 50.4945 11.0808C50.6852 10.2879 50.7875 9.464 50.7875 8.62061V7.84459C50.7876 7.29805 50.343 6.85344 49.7966 6.85344ZM13.5353 14.9839C9.86237 14.9839 6.87425 11.9958 6.87425 8.32289C6.87425 4.64997 9.86237 1.66184 13.5353 1.66184C15.2152 1.66184 16.8193 2.28922 18.0522 3.42847C19.0525 4.3528 19.737 5.54575 20.0313 6.85344H19.1802C18.5225 4.31988 16.214 2.48828 13.5353 2.48828C10.318 2.48828 7.70068 5.10573 7.70068 8.32289C7.70068 11.54 10.3181 14.1575 13.5353 14.1575C13.7748 14.1575 14.0149 14.1413 14.254 14.1115C14.4135 14.3717 14.5842 14.6244 14.7654 14.8695C14.3616 14.9454 13.9506 14.9839 13.5353 14.9839ZM16.0797 5.7785C15.7553 5.45409 15.2291 5.45409 14.9047 5.7785L14.6562 6.027C14.4324 6.25067 14.363 6.57027 14.4478 6.85344H13.6955C13.149 6.85344 12.7044 7.29805 12.7044 7.84459V8.62061C12.7044 9.46378 12.8066 10.2875 12.9973 11.0801C13.0002 11.0955 13.0042 11.1105 13.0079 11.1256C13.1226 11.5935 13.2678 12.0506 13.4434 12.4935C11.1849 12.4443 9.36242 10.593 9.36242 8.32289C9.36242 6.02197 11.2344 4.15002 13.5353 4.15002C15.3006 4.15002 16.8416 5.2617 17.4406 6.85344H16.1639C16.4002 6.52848 16.3727 6.07152 16.0797 5.7785ZM34.3099 52.6189C37.2309 53.2067 39.0648 53.6522 40.2126 53.974C38.1135 54.1802 34.7462 54.3152 31.746 54.3382C28.7465 54.3152 25.3795 54.1802 23.2803 53.9742C24.3781 53.6663 26.103 53.2454 28.8063 52.6949C29.5541 52.5428 30.0718 51.8425 30.0104 51.0666C30.0092 51.0518 30.0086 51.0367 30.0086 51.0215C30.0086 50.7641 30.1826 50.5378 30.4319 50.471C30.7952 50.3737 31.0479 50.0445 31.0479 49.6684V36.6665C31.0479 35.5725 30.7725 34.5115 30.267 33.568C30.7314 33.5981 31.2385 33.6135 31.746 33.6135C32.2535 33.6135 32.7606 33.5981 33.225 33.568C32.7196 34.5116 32.4441 35.5726 32.4441 36.6665V49.8361C32.4441 50.1212 32.5904 50.3864 32.8314 50.5386C32.9993 50.6446 33.0996 50.825 33.0996 51.0214C33.0996 51.034 33.0992 51.0466 33.0985 51.0581C33.0506 51.7994 33.5714 52.4704 34.3099 52.6189ZM49.126 8.62061H49.1259C49.1259 9.12012 49.0839 9.61166 49.0032 10.0917H23.989C23.5302 10.0917 23.1581 10.4637 23.1581 10.9226C23.1581 11.3815 23.5301 11.7535 23.989 11.7535H48.5522C47.5587 14.3772 45.3481 16.4442 42.5138 17.1812C40.7518 17.6393 39.4134 19.0937 39.104 20.8865L38.0479 27.0041C37.7517 28.7198 36.7969 30.2071 35.3594 31.1921C35.1365 31.3449 34.4746 31.7017 34.3538 31.7555C33.6963 32.0147 29.8013 32.0148 29.1394 31.756C29.019 31.7028 28.3563 31.3453 28.1327 31.1922C26.6952 30.2071 25.7404 28.7198 25.4443 27.0042L24.3881 20.8866C24.0787 19.0938 22.7402 17.6395 20.9784 17.1813C19.3746 16.7642 17.9709 15.921 16.8736 14.7925C16.8476 14.7604 16.8191 14.7308 16.789 14.7033C15.9876 13.856 15.3566 12.8541 14.9399 11.7537H20.1232C20.582 11.7537 20.9541 11.3817 20.9541 10.9227C20.9541 10.4639 20.5821 10.0918 20.1232 10.0918H14.4889C14.4082 9.61176 14.3662 9.12012 14.3662 8.62072V8.51528H49.126V8.62061Z"/>
  </symbol>
  <symbol id="education" viewBox="0 0 56 56">
<path d="M54.9145 11.2545C54.9109 11.2545 54.9072 11.2545 54.9037 11.2545H51.2239V9.99535C51.2437 9.49698 50.9213 9.04908 50.4423 8.90987C47.8877 8.2404 45.257 7.90471 42.616 7.91123C38.2741 7.91123 32.3582 8.88816 27.9837 13.3386C23.6418 8.84474 17.6825 7.91123 13.3514 7.91123C10.7104 7.90471 8.07978 8.2404 5.5251 8.90987C5.04613 9.04908 4.72374 9.49698 4.74355 9.99535V11.2437H1.08548C0.486024 11.2437 0 11.7297 0 12.3291V46.9994C0 47.5989 0.486024 48.0849 1.08548 48.0849C1.27191 48.0844 1.45509 48.0358 1.61737 47.9438C1.72592 47.8895 12.5807 41.9519 27.7341 45.7728H27.8969H27.9946C28.0811 45.7833 28.1685 45.7833 28.2551 45.7728C43.4518 41.9194 54.3066 47.8461 54.3718 47.9438C54.7076 48.1377 55.1214 48.1377 55.4573 47.9438C55.791 47.7511 55.9977 47.3958 56 47.0103V12.34C56 11.7405 55.5141 11.2545 54.9145 11.2545ZM2.17096 45.2735V13.4255H4.76526V40.6494C4.75848 41.2488 5.23894 41.7403 5.8384 41.7471C5.89701 41.7477 5.95563 41.7437 6.01357 41.7348C8.25916 41.392 10.5263 41.2106 12.7978 41.1921C15.9444 41.1376 19.0777 41.6108 22.0678 42.5924C15.3155 41.7758 8.46635 42.6987 2.17096 45.2735ZM12.7978 39.032C10.8235 39.0365 8.85142 39.1633 6.89281 39.4119V10.8529C9.00624 10.3821 11.1644 10.1418 13.3297 10.1365C17.3894 10.1365 22.9905 11.07 26.8765 15.4553L26.9091 42.4947C24.6513 41.0184 20.2442 39.032 12.7978 39.032ZM29.0801 15.4553C32.9661 11.1134 38.5672 10.1365 42.6269 10.1365C44.792 10.1428 46.9502 10.383 49.0638 10.8529V39.4119C47.1161 39.161 45.155 39.0305 43.1913 39.0211C35.7883 39.0211 31.3704 41.0076 29.0801 42.4838V15.4553ZM53.8182 45.2735C47.5094 42.6917 40.6445 41.7686 33.8779 42.5924C36.8821 41.6073 40.0304 41.1339 43.1913 41.1921C45.4771 41.2049 47.7589 41.3826 50.019 41.724C50.6117 41.8139 51.1651 41.4063 51.2551 40.8137C51.2639 40.7557 51.268 40.6971 51.2673 40.6385V13.4255H53.8616L53.8182 45.2735Z" />

  </symbol>
  <symbol id="transport" viewBox="0 0 56 56">
<path d="M53.8581 22.4358L52.6376 21.1435L48.3538 9.5965C47.6239 7.64607 45.7573 6.35376 43.6752 6.3418H13.0786C10.9966 6.3418 9.12991 7.64607 8.4 9.5965L4.17607 20.9999L2.41709 22.6273C0.88547 23.9315 0 25.8461 0 27.8563V44.6803C0.0119658 47.4324 2.24957 49.658 5.00171 49.658H8.16068C10.9128 49.658 13.1504 47.4324 13.1624 44.6803V42.2392H42.8376V44.6803C42.8496 47.4324 45.0872 49.658 47.8393 49.658H50.9983C53.7504 49.658 55.988 47.4324 56 44.6803V27.4136C55.988 25.535 55.2222 23.7401 53.8581 22.4358ZM10.6496 10.4102C11.0325 9.39308 12.0017 8.73496 13.0786 8.73496H43.6872C44.7641 8.73496 45.7333 9.40504 46.1162 10.4102L49.8496 20.4615H47.0615C46.4034 15.9743 42.2273 12.8751 37.7402 13.5452C34.1624 14.0717 31.3504 16.8837 30.8239 20.4615H6.91624L10.6496 10.4102ZM44.6205 20.4615H33.241C33.8991 17.3144 36.9863 15.3042 40.1333 15.9623C42.3829 16.4409 44.1419 18.1999 44.6205 20.4615ZM10.7692 44.6803C10.7573 46.1162 9.59658 47.2649 8.16068 47.2649H5.00171C3.56581 47.2649 2.40513 46.1162 2.39316 44.6803V41.5452C3.11111 42.0119 4.05641 42.2392 5.00171 42.2392H10.7692V44.6803ZM53.6068 44.6803C53.5949 46.1162 52.4342 47.2649 50.9983 47.2649H47.8393C46.4034 47.2649 45.2427 46.1042 45.2308 44.6803V42.2392H50.9983C51.9436 42.2392 52.8889 42.0119 53.6068 41.5452V44.6803ZM50.9983 39.8461H5.00171C3.57778 39.858 2.40513 38.7213 2.39316 37.2854V27.8563C2.39316 26.5401 2.97949 25.2837 3.98462 24.4341C3.99658 24.4221 4.02051 24.3982 4.03248 24.3862L5.65983 22.8546H50.9744L52.1231 24.0871C52.135 24.111 52.1709 24.123 52.1829 24.1469C53.0803 24.9965 53.5949 26.1811 53.5949 27.4136V37.2854H53.6068C53.5949 38.7093 52.4222 39.858 50.9983 39.8461Z" />
<path d="M15.7948 27.6411H6.82048C6.16236 27.6411 5.6239 28.1796 5.6239 28.8377V35.0599C5.6239 35.718 6.16236 36.2565 6.82048 36.2565H15.7948C16.453 36.2565 16.9914 35.718 16.9914 35.0599V28.8377C16.9914 28.1796 16.453 27.6411 15.7948 27.6411ZM14.5983 33.8633H8.01706V30.0343H14.5983V33.8633Z" />
<path d="M49.1795 27.6411H40.2051C39.547 27.6411 39.0085 28.1796 39.0085 28.8377V35.0599C39.0085 35.718 39.547 36.2565 40.2051 36.2565H49.1795C49.8376 36.2565 50.3761 35.718 50.3761 35.0599V28.8377C50.3761 28.1796 49.8376 27.6411 49.1795 27.6411ZM47.9829 33.8633H41.4017V30.0343H47.9829V33.8633Z" />
<path d="M33.7796 32.6665H22.2206C21.5624 32.6665 21.024 33.205 21.024 33.8631C21.024 34.5212 21.5624 35.0597 22.2206 35.0597H33.7796C34.4377 35.0597 34.9761 34.5212 34.9761 33.8631C34.9761 33.205 34.4377 32.6665 33.7796 32.6665Z" />
<path d="M33.7796 28.957H22.2206C21.5624 28.957 21.024 29.4955 21.024 30.1536C21.024 30.8117 21.5624 31.3502 22.2206 31.3502H33.7796C34.4377 31.3502 34.9761 30.8117 34.9761 30.1536C34.9761 29.4955 34.4377 28.957 33.7796 28.957Z" />
</symbol>
  <symbol id="health" viewBox="0 0 56 56">
<g clip-path="url(#clip0_11_1041)">
<path d="M55.794 31.2001L54.7974 16.6657C54.7328 15.7243 54.3046 14.8651 53.592 14.2466C52.8793 13.6281 51.9685 13.3252 51.0274 13.3938C49.1776 13.5286 47.7429 15.087 47.7612 16.9416L47.8789 28.7903L42.7463 35.3638C41.9269 36.4131 40.5675 36.8344 39.3344 36.5184L44.9188 29.2664C45.899 27.9935 45.7361 26.1495 44.5481 25.0683C43.9139 24.4909 43.0937 24.2057 42.2377 24.2656C41.3821 24.3254 40.6091 24.7216 40.0611 25.3815L31.6249 35.5413C30.2335 37.217 29.4791 39.3391 29.5001 41.517L29.6311 55.0092C29.6363 55.5469 30.0734 55.9802 30.6112 55.981L44.6584 56.0001C44.6588 56.0001 44.6593 56.0001 44.6597 56.0001C44.9345 56.0001 45.1967 55.8849 45.3825 55.6825C45.5687 55.4797 45.6612 55.2082 45.6373 54.9338L45.0639 48.3295L54.3892 35.9362C55.4114 34.578 55.9102 32.8959 55.794 31.2001ZM52.8209 34.7564L43.2697 47.4501C43.1242 47.6435 43.0552 47.8839 43.0762 48.125L43.5894 54.036L31.5844 54.0197L31.4629 41.498C31.4461 39.784 32.04 38.114 33.135 36.7953L41.5713 26.6353C41.7734 26.3918 42.0587 26.2456 42.3743 26.2237C42.69 26.2012 42.993 26.3067 43.227 26.5199C43.6655 26.9189 43.7256 27.5994 43.3638 28.069L37.0266 36.2986C36.8604 36.5143 36.7915 36.7894 36.8361 37.058C36.8807 37.3266 37.035 37.5647 37.2619 37.7151C39.5298 39.2193 42.6186 38.7171 44.2933 36.5719L49.6371 29.7278C49.774 29.5527 49.8471 29.3363 49.845 29.1141L49.724 16.9223C49.7157 16.1013 50.351 15.4113 51.17 15.3515C51.5885 15.3214 51.99 15.4553 52.3055 15.729C52.6211 16.0029 52.8106 16.3832 52.8393 16.8001L53.8358 31.3345C53.9197 32.5597 53.5595 33.7749 52.8209 34.7564Z" />
<path d="M15.9387 25.3813C15.3907 24.7214 14.6178 24.325 13.7622 24.2654C12.9071 24.2057 12.0861 24.4907 11.452 25.068C10.2638 26.1493 10.1009 27.9934 11.0811 29.2663L16.6656 36.5183C15.4333 36.8339 14.073 36.4131 13.2536 35.3637L8.121 28.7902L8.23864 16.9415C8.25696 15.0869 6.82245 13.5285 4.97263 13.3937C4.03287 13.3256 3.12097 13.6278 2.40797 14.2465C1.69537 14.865 1.26723 15.7242 1.20259 16.6656L0.205905 31.1999C0.0895796 32.8957 0.588509 34.5778 1.61045 35.9361L10.9358 48.3294L10.3625 54.9337C10.3385 55.2079 10.431 55.4796 10.6172 55.6824C10.8032 55.8848 11.0654 56 11.34 56C11.3404 56 11.341 56 11.3413 56L25.3886 55.9809C25.9264 55.9801 26.3634 55.5468 26.3686 55.009L26.4998 41.5169C26.5208 39.3391 25.7663 37.217 24.375 35.5413L15.9387 25.3813ZM24.4155 54.0194L12.4106 54.0358L12.9238 48.1248C12.9448 47.8836 12.8759 47.6432 12.7303 47.4498L3.17894 34.7561C2.44043 33.7747 2.0802 32.5594 2.16407 31.3343L3.16075 16.7999C3.18941 16.383 3.37888 16.0026 3.69449 15.7287C3.98066 15.4804 4.33905 15.3471 4.71407 15.3471C4.75254 15.3471 4.79114 15.3485 4.83 15.3512C5.64899 15.4109 6.284 16.1009 6.27589 16.9221L6.15485 29.1139C6.15263 29.3361 6.22591 29.5525 6.36277 29.7276L11.7065 36.5717C13.3816 38.7168 16.4701 39.2187 18.7381 37.715C18.965 37.5645 19.1193 37.3265 19.1639 37.0579C19.2085 36.7893 19.1395 36.5141 18.9734 36.2983L12.6361 28.0689C12.2744 27.5992 12.3345 26.9187 12.7731 26.5197C13.0072 26.3065 13.3097 26.2017 13.6256 26.2234C13.9413 26.2454 14.2266 26.3917 14.4287 26.6352L22.865 36.7951C23.96 38.114 24.5539 39.784 24.5371 41.4979L24.4155 54.0194Z" />
<path d="M47.2247 11.0429C47.2247 8.09331 46.0759 5.32022 43.9902 3.23447C41.9044 1.1486 39.1315 0 36.1817 0C33.2321 0 30.459 1.1486 28.3731 3.23434L28 3.60766L27.6266 3.23434C25.541 1.1486 22.7679 0 19.8182 0C16.8686 0 14.0955 1.1486 12.0096 3.23434C7.70413 7.53995 7.70413 14.5456 12.0097 18.8514L27.3059 34.1476C27.4976 34.3391 27.7489 34.4351 28 34.4351C28.2511 34.4351 28.5023 34.3393 28.694 34.1476L43.9902 18.8513C46.0759 16.7656 47.2247 13.9925 47.2247 11.0429ZM28.0001 32.0659L13.3977 17.4635C9.85726 13.9231 9.85726 8.16253 13.3977 4.62213C15.1126 2.90722 17.3929 1.96275 19.8182 1.96275C22.2436 1.96275 24.5238 2.90722 26.2389 4.62227L27.3061 5.68948C27.49 5.87358 27.7396 5.97695 28 5.97695C28.2604 5.97695 28.5099 5.87345 28.694 5.68948L29.7611 4.62227C31.4761 2.90722 33.7564 1.96275 36.1817 1.96275C38.6072 1.96275 40.8874 2.90722 42.6023 4.62227C44.3173 6.33731 45.2619 8.6175 45.2619 11.0429C45.2619 13.4684 44.3173 15.7485 42.6023 17.4636L28.0001 32.0659Z" />
</g>
<defs>
<clipPath id="clip0_11_1041">
<rect width="56" height="56" fill="white"/>
</clipPath>
</defs>
</symbol>
  <symbol id="house" viewBox="0 0 56 56">
<g clip-path="url(#clip0_11_1068)">
<path d="M54.2246 20.9157H53.112V16.7807C53.112 14.3363 51.1234 12.3477 48.679 12.3477H32.6128C31.1234 12.3477 29.8042 13.0867 29 14.2164C28.1958 13.0866 26.8766 12.3477 25.3872 12.3477H15.2939C14.8409 12.3477 14.4736 12.7149 14.4736 13.168C14.4736 13.621 14.8409 13.9883 15.2939 13.9883H25.3872C26.927 13.9883 28.1797 15.241 28.1797 16.7807V24.985C28.1625 24.9684 28.1444 24.953 28.127 24.9367C27.1546 24.0301 25.8368 23.5075 24.5065 23.5075H10.8425C10.7702 22.4061 10.0194 21.4374 8.98328 21.0701C8.69136 20.9666 8.3827 20.9157 8.07306 20.9157H6.52858V16.7807C6.52858 15.241 7.78125 13.9883 9.32103 13.9883H12.0126C12.4657 13.9883 12.833 13.621 12.833 13.168C12.833 12.7149 12.4657 12.3477 12.0126 12.3477H9.32103C6.87661 12.3477 4.88795 14.3363 4.88795 16.7807V20.9157H3.77539C2.24502 20.9157 1 22.1609 1 23.691V32.2563C1 35.4433 3.59284 38.0361 6.77981 38.0361H7.19205C7.19205 38.0361 6.29386 40.452 6.2932 40.4539C5.72653 41.9779 6.89291 43.6521 8.51625 43.6521H9.83597C10.5747 43.6521 11.2818 43.3003 11.7275 42.7111L15.2637 38.0361H42.7365L46.2727 42.7112C46.7184 43.3003 47.4255 43.6521 48.1641 43.6521C48.1641 43.6521 49.483 43.6521 49.4837 43.6521C51.1091 43.6521 52.2734 41.9776 51.7068 40.4539L50.8078 38.0361H51.2202C54.4072 38.0361 57 35.4433 57 32.2563V23.691C57 22.1609 55.755 20.9157 54.2246 20.9157ZM29.8203 16.781C29.8203 15.2411 31.073 13.9884 32.6128 13.9884H48.679C50.2188 13.9884 51.4714 15.2411 51.4714 16.7808V20.9158C51.4714 20.9158 49.9274 20.9158 49.9268 20.9158C48.8361 20.9158 47.7899 21.6158 47.3668 22.62C47.2483 22.9013 47.1774 23.2033 47.1575 23.5077C47.1575 23.5077 33.4939 23.5077 33.4935 23.5077C32.1427 23.5077 30.7964 24.0512 29.8203 24.9852V16.781ZM10.8486 25.1482H24.5065C26.532 25.1484 28.1797 26.7961 28.1797 28.8215V29.988H10.8486V25.1482ZM10.419 41.7214C10.2817 41.9031 10.0636 42.0115 9.83586 42.0115C9.83586 42.0115 8.52073 42.0115 8.51614 42.0115C8.01389 42.0115 7.65591 41.4962 7.83091 41.0257L8.94237 38.0361H13.2065L10.419 41.7214ZM49.4837 42.0114H48.1641C47.9364 42.0114 47.7184 41.903 47.5811 41.7214L44.7935 38.0361H49.0576C49.0576 38.0361 50.1653 41.0152 50.1691 41.0256C50.3444 41.4972 49.9839 42.0114 49.4837 42.0114ZM51.2202 36.3955H6.77981C4.49748 36.3956 2.64062 34.5386 2.64062 32.2563V23.691C2.64062 23.0653 3.14966 22.5563 3.77539 22.5563H8.07306C8.6988 22.5563 9.20783 23.0653 9.20783 23.691V30.8082C9.20783 31.2612 9.57511 31.6285 10.0281 31.6285H40.1584C40.6115 31.6285 40.9787 31.2612 40.9787 30.8082C40.9787 30.3552 40.6115 29.9879 40.1584 29.9879H29.8203V28.8214C29.8203 26.796 31.468 25.1482 33.4935 25.1482H47.1514V29.988H43.4397C42.9867 29.988 42.6194 30.3553 42.6194 30.8083C42.6194 31.2613 42.9867 31.6286 43.4397 31.6286H47.9717C48.4248 31.6286 48.7921 31.2613 48.7921 30.8083V23.6912C48.7921 23.0654 49.3011 22.5564 49.9268 22.5564H54.2245C54.8502 22.5564 55.3593 23.0654 55.3593 23.6912V32.2563H55.3594C55.3594 34.5386 53.5025 36.3955 51.2202 36.3955Z" />
</g>
<defs>
<clipPath id="clip0_11_1068">
<rect width="56" height="56" fill="white"/>
</clipPath>
</defs>
</symbol>
  <symbol id="sport" viewBox="0 0 56 56">
<g clip-path="url(#clip0_11_1169)">
<path d="M54.2851 23.6511H50.9474C50.3288 23.6511 49.7836 23.9689 49.4649 24.4492C46.9134 24.1826 46.5733 23.7737 46.2977 23.4404C45.9226 22.9871 45.4778 22.6026 44.9754 22.2975L37.3059 17.6389C35.7439 14.0107 33.1312 11.7424 31.1924 10.4709C30.4375 9.97577 29.9867 9.13708 29.9867 8.22748C29.9867 7.69086 30.1448 7.17218 30.4439 6.72699L32.3511 3.88837C32.7313 3.32312 32.8625 2.64465 32.7211 1.97815C32.5797 1.31165 32.184 0.745117 31.6073 0.382385C31.2086 0.132446 30.7494 0 30.2794 0H21.2175C20.7471 0 20.2878 0.132446 19.8896 0.382385C19.3128 0.74469 18.9172 1.31122 18.7758 1.97815C18.6344 2.64465 18.7655 3.32312 19.1458 3.88837L21.053 6.72699C21.3521 7.17218 21.5102 7.69086 21.5102 8.22748C21.5102 9.13708 21.0594 9.97577 20.3045 10.4709C17.4312 12.3551 11.0106 17.9084 13.4382 28.7618C14.7921 34.8154 15.838 39.0819 16.4669 41.1348H2.94076C1.82522 41.1348 0.849813 41.9278 0.622091 43.0198L0.159811 45.239C0.0136925 45.9401 0.188863 46.6608 0.64089 47.2167C1.09249 47.7721 1.76241 48.0908 2.47848 48.0908H49.0184C49.7349 48.0908 50.4044 47.7721 50.8564 47.2167C51.308 46.6608 51.4832 45.9401 51.3371 45.239L50.8748 43.0198C50.6471 41.9278 49.6717 41.1348 48.5561 41.1348H35.0299C35.2179 40.5209 35.4448 39.704 35.7075 38.6923H36.5979C39.2105 38.6923 41.7996 38.3022 44.2956 37.5327L49.3939 36.8901C49.6986 37.4344 50.2801 37.804 50.9474 37.804H54.2851C55.2656 37.804 56.0637 37.0063 56.0637 36.0254V25.4301C56.0637 24.4492 55.2656 23.6511 54.2851 23.6511ZM20.3809 2.31866C20.4292 2.09009 20.5647 1.89612 20.7625 1.77179C20.8992 1.68591 21.0564 1.64062 21.2175 1.64062H30.2794C30.4405 1.64062 30.5981 1.68591 30.7344 1.77179C30.9322 1.89612 31.0676 2.09009 31.1164 2.31866C31.1646 2.54681 31.1193 2.77966 30.9895 2.97321L30.0457 4.37799H21.4512L20.5074 2.97321C20.3771 2.77966 20.3322 2.54681 20.3809 2.31866ZM21.2038 11.8428C22.4232 11.0435 23.1512 9.69165 23.1512 8.22748C23.1512 7.44519 22.9401 6.68726 22.5428 6.01862H28.9541C28.5567 6.68726 28.3461 7.44519 28.3461 8.22748C28.3461 9.69165 29.0737 11.0435 30.2931 11.8428C30.7955 12.1722 31.3479 12.5756 31.9136 13.0605H19.588C20.1622 12.5674 20.7159 12.1628 21.2038 11.8428ZM49.2688 43.3548L49.731 45.5739C49.7926 45.8687 49.6648 46.0811 49.5832 46.1815C49.5016 46.2819 49.3196 46.4502 49.0184 46.4502H2.47848C2.17727 46.4502 1.99526 46.2819 1.91366 46.1815C1.83205 46.0811 1.70431 45.8687 1.76583 45.5739L2.22811 43.3548C2.29818 43.019 2.5981 42.7755 2.94076 42.7755H48.5557C48.8988 42.7755 49.1983 43.019 49.2688 43.3548ZM33.3081 41.1348H18.1887C17.8508 40.1278 16.9929 37.1362 15.0391 28.4033C14.2154 24.7209 14.4123 21.3871 15.6206 18.4698H18.6425C19.0958 18.4698 19.4628 18.1028 19.4628 17.6495C19.4628 17.1962 19.0958 16.8292 18.6425 16.8292H16.434C16.8972 16.0311 17.4124 15.324 17.9469 14.7011H33.5559C34.0917 15.3257 34.6057 16.0333 35.0662 16.8292H21.928C21.4747 16.8292 21.1077 17.1962 21.1077 17.6495C21.1077 18.1028 21.4747 18.4698 21.928 18.4698H32.7989C32.5899 18.9804 32.5472 19.5418 32.6809 20.0878C32.8488 20.7701 33.2722 21.3469 33.8721 21.7101L35.2824 22.5667H26.165C24.7171 22.5667 23.543 23.6805 23.4926 25.1024C23.4789 25.481 23.5447 25.8488 23.6823 26.188H22.841C22.1203 26.188 21.4482 26.4734 20.9475 26.9921C20.4476 27.5104 20.1857 28.1931 20.2118 28.9143C20.2515 30.041 20.997 30.9741 22.0254 31.3133C21.8626 31.6551 21.7716 32.037 21.7716 32.4404C21.7716 33.8909 22.9521 35.0714 24.4026 35.0714H25.6455C25.5207 35.3773 25.4519 35.7118 25.4519 36.0617C25.4519 37.5126 26.6324 38.6927 28.0829 38.6927H34.0118C33.667 39.9966 33.4453 40.7277 33.3081 41.1348ZM44.0192 35.9139C43.9709 35.9199 43.9239 35.9301 43.8778 35.9442C41.5185 36.6791 39.0691 37.0516 36.5979 37.0516H28.0829C27.5369 37.0516 27.0926 36.6073 27.0926 36.0613C27.0926 35.5153 27.5369 35.0709 28.0829 35.0709H33.4598C33.9127 35.0709 34.2801 34.7035 34.2801 34.2506C34.2801 33.7973 33.9127 33.4303 33.4598 33.4303H24.4026C23.8566 33.4303 23.4123 32.986 23.4123 32.4399C23.4123 31.8939 23.8566 31.4496 24.4026 31.4496H33.4598C33.9127 31.4496 34.2801 31.0826 34.2801 30.6293C34.2801 30.176 33.9127 29.809 33.4598 29.809H22.8842C22.333 29.809 21.8699 29.3813 21.8511 28.8553C21.8417 28.5836 21.94 28.326 22.128 28.1307C22.3168 27.9359 22.5697 27.8282 22.841 27.8282H33.4598C33.9127 27.8282 34.2801 27.4608 34.2801 27.0079C34.2801 26.5546 33.9127 26.1876 33.4598 26.1876H26.1218C25.8505 26.1876 25.5972 26.08 25.4088 25.8847C25.2208 25.6899 25.1225 25.4323 25.1319 25.1601C25.1507 24.6346 25.6143 24.2069 26.165 24.2069H37.4721C37.9382 24.2069 38.336 23.9053 38.462 23.4562C38.5876 23.0072 38.4043 22.5428 38.0057 22.301L34.7232 20.307C34.4967 20.1699 34.3378 19.9532 34.2746 19.696C34.2113 19.4393 34.2519 19.1731 34.3891 18.9471C34.6719 18.4797 35.2824 18.3301 35.7486 18.6121L44.1239 23.6993C44.4695 23.9091 44.7754 24.174 45.0335 24.4859C45.7042 25.2964 46.5656 25.7826 49.1684 26.0671V35.264L44.0192 35.9139ZM54.4231 36.0254C54.4231 36.1014 54.3611 36.1634 54.2851 36.1634H50.9474C50.8714 36.1634 50.809 36.1014 50.809 36.0254V25.4297C50.809 25.3536 50.8709 25.2917 50.9474 25.2917H54.2851C54.3611 25.2917 54.4231 25.3536 54.4231 25.4297V36.0254Z" />
<path d="M39.3344 53.3537L35.0619 49.9165C34.709 49.6324 34.1924 49.6888 33.9088 50.0417C33.6246 50.3946 33.6806 50.9111 34.0335 51.1948L37.9676 54.3594H13.5291L17.4713 51.1884C17.8242 50.9047 17.8802 50.3882 17.5961 50.0353C17.3124 49.6819 16.7958 49.6264 16.4429 49.9101L12.1624 53.3533C11.6638 53.7544 11.4792 54.4034 11.6915 55.0067C11.9039 55.61 12.455 56 13.0946 56H38.4021C39.0417 56 39.5924 55.6104 39.8052 55.0067C40.0175 54.4034 39.833 53.7544 39.3344 53.3537Z" />
</g>
<defs>
<clipPath id="clip0_11_1169">
<rect width="56" height="56" fill="white"/>
</clipPath>
</defs>
</symbol>
  <symbol id="tech" viewBox="0 0 56 56">
  <g clip-path="url(#clip0_11_1287)">
<path d="M37.9904 16.9692C37.3867 16.9692 36.8966 17.458 36.8966 18.0626C36.8966 18.6667 37.3867 19.1563 37.9904 19.1563C38.5953 19.1563 39.0841 18.6667 39.0841 18.0626C39.0841 17.458 38.5953 16.9692 37.9904 16.9692Z" />
<path d="M18.1174 36.8418C17.5125 36.8418 17.0237 37.3318 17.0237 37.9355C17.0237 38.5405 17.5125 39.0293 18.1174 39.0293C18.7211 39.0293 19.2112 38.5405 19.2112 37.9355C19.2112 37.3318 18.7211 36.8418 18.1174 36.8418Z" />
<path d="M54.6939 6.72881C54.3248 6.64293 53.9369 6.75444 53.6703 7.02361L49.1359 11.5939H46.9621L44.5691 9.11455V6.91039L49.0385 2.37431C49.303 2.106 49.4106 1.7202 49.323 1.35319C49.2359 0.986616 48.9659 0.690961 48.6087 0.570478C47.4859 0.191937 46.3109 0.000103766 45.1159 0.000103766C41.5536 0.000103766 38.3172 1.66124 36.2365 4.55754C34.2891 7.26885 33.6888 10.5915 34.5489 13.7715L26.4923 21.8281L13.0699 8.37499V5.7346C13.0699 5.35051 12.8682 4.99419 12.5388 4.7968L4.80524 0.156049C4.37458 -0.102435 3.82386 -0.0345032 3.46924 0.320539L0.375977 3.41337C0.0213622 3.76842 -0.0465699 4.31914 0.211487 4.7498L4.85138 12.4834C5.04877 12.8128 5.40467 13.014 5.78876 13.0145L8.42829 13.0153L21.8519 26.4684L13.8261 34.4943C10.6461 33.6346 7.32172 34.2358 4.60913 36.1845C1.71454 38.2639 0.0546875 41.4994 0.0546875 45.0618C0.0546875 46.2564 0.246521 47.4317 0.625061 48.5541C0.745972 48.9134 1.04462 49.1847 1.41376 49.2702C1.78333 49.356 2.17084 49.2445 2.43787 48.9754L6.97181 44.4055H9.1576L11.648 46.8959V49.0817L7.07819 53.6157C6.80903 53.8827 6.69751 54.2702 6.78339 54.6398C6.86884 55.0089 7.14014 55.3076 7.49946 55.4285C8.62183 55.807 9.79719 55.9989 10.9918 55.9989C14.5541 55.9989 17.7893 54.3386 19.8691 51.444C21.8178 48.7314 22.4189 45.4074 21.5593 42.2274L28.0051 35.7816L29.4817 37.3854L28.8041 38.0626C28.3769 38.4899 28.3769 39.1824 28.8041 39.6097C29.2313 40.0365 29.9235 40.0365 30.3512 39.6097L30.9647 38.9962L44.8186 54.0446C44.8288 54.0557 44.8395 54.0664 44.8502 54.0771C47.4137 56.6406 51.5669 56.6414 54.1317 54.0767C56.6892 51.5179 56.6892 47.3544 54.1317 44.7956C54.1206 44.7845 54.109 44.7738 54.0975 44.7631L39.0255 30.9357L39.6322 30.329C40.0595 29.9022 40.0595 29.2097 39.6322 28.7824C39.205 28.3552 38.5128 28.3552 38.0852 28.7824L37.4123 29.4557L35.8054 27.9809L42.2824 21.5038C43.2032 21.7499 44.1534 21.8747 45.1159 21.8747C51.1469 21.8747 56.053 16.9682 56.053 10.9376C56.053 9.7426 55.8612 8.56767 55.4826 7.44487C55.3617 7.08556 55.0631 6.81426 54.6939 6.72881ZM9.6562 11.1491C9.45112 10.9436 9.17298 10.8389 8.88245 10.8389L6.4087 10.8381L2.52674 4.35673L4.41217 2.4713L10.8824 6.35411V8.82787C10.8824 9.11754 10.9973 9.39525 11.202 9.60033L24.9456 23.3752L23.3986 24.9218L9.6562 11.1491ZM37.4772 32.4841L52.6004 46.358C54.2898 48.0653 54.2846 50.8296 52.5846 52.5305C50.8808 54.2343 48.1225 54.2395 46.4118 52.5454L32.5126 37.4478L37.4772 32.4841ZM35.8639 31.0037L31.0296 35.8371L29.5531 34.2332L34.257 29.5288L35.8639 31.0037ZM45.1159 19.6872C44.1593 19.6872 43.2185 19.5338 42.3205 19.2313C41.927 19.0993 41.492 19.201 41.1981 19.4945C35.7148 24.9778 23.8997 36.7924 19.5491 41.1435C19.2551 41.4374 19.153 41.8724 19.2859 42.2663C20.1951 44.9661 19.7601 47.8457 18.0922 50.1678C16.4289 52.483 13.8406 53.8114 10.9918 53.8114C10.6718 53.8114 10.3535 53.7938 10.0382 53.7601L13.5121 50.3131C13.7189 50.108 13.8355 49.8286 13.8355 49.5368V46.4426C13.8355 46.1525 13.7202 45.8744 13.5151 45.6693L10.3838 42.538C10.1787 42.333 9.90058 42.2176 9.61048 42.2176H6.51636C6.22455 42.2176 5.94513 42.3342 5.73963 42.541L2.29303 46.015C2.25885 45.6997 2.24176 45.3814 2.24176 45.0613C2.24176 42.212 3.56964 39.6242 5.88532 37.9609C8.20698 36.293 11.087 35.8576 13.7872 36.7672C14.1807 36.9001 14.6157 36.798 14.9096 36.504C14.9699 36.4442 36.5432 14.8704 36.5586 14.855C36.8526 14.5611 36.9543 14.1266 36.8218 13.7327C35.9122 11.0329 36.3463 8.1541 38.013 5.83373C39.6775 3.51634 42.2662 2.18761 45.1155 2.18761C45.4453 2.18761 45.773 2.20598 46.0977 2.24187L42.696 5.69444C42.4944 5.89909 42.3816 6.17467 42.3816 6.46178V9.5559C42.3816 9.83959 42.4914 10.1117 42.6883 10.3155L45.7102 13.4468C45.9162 13.6605 46.2003 13.7809 46.4972 13.7809H49.5913C49.8827 13.7809 50.1621 13.6647 50.3676 13.4575L53.8142 9.984C53.8484 10.2993 53.8655 10.6176 53.8655 10.9376C53.8655 15.7621 49.9404 19.6872 45.1159 19.6872Z" />
<path d="M34.1238 20.3824L20.4369 34.0693C20.0101 34.4961 20.0101 35.1887 20.4369 35.6159C20.8642 36.0432 21.5567 36.0432 21.984 35.6159L35.6708 21.9291C36.0981 21.5023 36.0981 20.8097 35.6708 20.3824C35.2436 19.9552 34.551 19.9552 34.1238 20.3824Z" />
<path d="M47.9451 49.4375C48.3724 49.8634 49.0649 49.8634 49.4922 49.4349C49.9186 49.0072 49.9173 48.3147 49.4896 47.8883L39.6309 38.0612C39.2032 37.6348 38.5102 37.6361 38.0843 38.0637C37.6574 38.4918 37.6587 39.184 38.0864 39.6104L47.9451 49.4375Z" />
</g>
<defs>
<clipPath id="clip0_11_1287">
<rect width="55.8907" height="56" fill="white"/>
</clipPath>
</defs>
</symbol>
  <symbol id="fun" viewBox="0 0 56 56">
  <g clip-path="url(#clip0_11_1017)">
<path d="M52.9915 27.517L50.7424 25.2679V3.8683L52.6321 1.97862C53.0026 1.60817 53.0026 1.00748 52.6321 0.637138C52.2615 0.266684 51.661 0.266684 51.2905 0.637138L49.4008 2.52681H28.001L25.7521 0.27784C25.3816 -0.0926134 24.7809 -0.0926134 24.4106 0.27784C24.0401 0.648294 24.0401 1.24898 24.4106 1.61933L26.5635 3.77227L19.8865 32.0664C19.3359 32.7544 19.1516 33.6715 19.4095 34.528C19.6965 35.481 20.4806 36.1959 21.4559 36.3938L25.7139 37.2581C26.5211 37.4221 27.2077 37.9323 27.5973 38.6581C27.9869 39.3839 28.0329 40.2379 27.7234 41.0013C27.22 42.243 25.9028 42.943 24.5925 42.665L8.64041 39.2854C6.23853 38.7764 3.81686 40.1399 3.00584 42.457C2.53553 43.8006 2.67279 45.2793 3.38231 46.5133C4.09194 47.7476 5.30064 48.6103 6.69813 48.8799L6.76419 48.8927C8.02124 49.1352 9.08874 49.9217 9.69304 51.0504C10.2972 52.1792 10.3599 53.5035 9.86465 54.6843C9.66198 55.1675 9.88948 55.7234 10.3726 55.9261C10.4925 55.9763 10.6167 56.0001 10.739 56.0001C11.1098 56.0001 11.4619 55.7814 11.6141 55.418C12.3312 53.708 12.2406 51.7897 11.3654 50.155C10.4903 48.5203 8.94404 47.3811 7.12371 47.0299L7.05765 47.0171C6.20157 46.852 5.46142 46.3237 5.02688 45.5678C4.59233 44.8119 4.50833 43.9065 4.79642 43.0836C5.29299 41.6646 6.77666 40.8301 8.24688 41.1414L24.1986 44.521C26.4105 44.9896 28.6317 43.8092 29.4811 41.7141C30.0034 40.4261 29.9258 38.9852 29.2684 37.7607C28.6111 36.5361 27.453 35.6754 26.0909 35.3989L21.8329 34.5346C21.4094 34.4486 21.2672 34.1187 21.2258 33.9809C21.1921 33.8694 21.1443 33.6165 21.2893 33.3622L49.4965 26.7058L51.6495 28.8588C51.8348 29.0439 52.0777 29.1367 52.3204 29.1367C52.5631 29.1367 52.806 29.0442 52.9913 28.8588C53.3619 28.4881 53.3619 27.8874 52.9915 27.517ZM47.5035 4.42403L38.701 13.2264L29.8984 4.42403H47.5035ZM28.1406 5.34935L37.3593 14.568L22.4459 29.4816L28.1406 5.34935ZM23.7875 30.8233L38.701 15.9097L47.9197 25.1284L23.7875 30.8233ZM48.845 23.3705L40.0425 14.568L48.845 5.76552V23.3705Z" />
</g>
<defs>
<clipPath id="clip0_11_1017">
<rect width="56" height="56" fill="white"/>
</clipPath>
</defs>
</symbol>
  <symbol id="addition" viewBox="0 0 42 56">
  <path d="M13.4233 33.8555C13.4233 33.4024 13.0562 33.0352 12.603 33.0352H4.64807C4.19493 33.0352 3.82776 33.4024 3.82776 33.8555V39.1588C3.82776 39.6119 4.19493 39.9792 4.64807 39.9792H12.603C13.0562 39.9792 13.4233 39.6119 13.4233 39.1588V33.8555ZM11.7827 38.3384H5.46838V34.6757H11.7827V38.3384Z" />
<path d="M32.9326 38.2119H37.352C37.8051 38.2119 38.1723 37.8446 38.1723 37.3916C38.1723 36.9386 37.8051 36.5713 37.352 36.5713H32.9326C32.4794 36.5713 32.1122 36.9386 32.1122 37.3916C32.1122 37.8446 32.4794 38.2119 32.9326 38.2119Z" />
<path d="M32.9326 34.6758H37.352C37.8051 34.6758 38.1723 34.3085 38.1723 33.8555C38.1723 33.4024 37.8051 33.0352 37.352 33.0352H32.9326C32.4794 33.0352 32.1122 33.4024 32.1122 33.8555C32.1122 34.3085 32.4794 34.6758 32.9326 34.6758Z" />
<path d="M40.8875 42.7038C40.4344 42.7038 40.0672 43.0711 40.0672 43.5241V54.0755C40.0672 54.2325 39.9396 54.3601 39.7826 54.3601H2.21721C2.06026 54.3601 1.93262 54.2325 1.93262 54.0755V35.9219C1.93262 35.4688 1.56545 35.1016 1.1123 35.1016C0.659164 35.1016 0.291992 35.4688 0.291992 35.9219V54.0754C0.291992 55.137 1.15562 56.0006 2.21721 56.0006H39.7826C40.8441 56.0006 41.7078 55.137 41.7078 54.0754V43.524C41.7078 43.0711 41.3406 42.7038 40.8875 42.7038Z" />
<path d="M39.7827 27.8426H26.2397V23.6819C30.4775 21.702 33.4213 17.3994 33.4213 12.4214C33.4213 5.57222 27.8491 0 21 0C18.6229 0 16.3124 0.67375 14.3182 1.94852C12.3777 3.18894 10.8216 4.93784 9.81823 7.00591C9.62048 7.41355 9.79066 7.90431 10.1983 8.10206C10.6062 8.2997 11.0966 8.12952 11.2944 7.72209C13.1142 3.97086 16.8332 1.64062 21 1.64062C26.9446 1.64062 31.7807 6.47686 31.7807 12.4214C31.7807 18.3659 26.9446 23.2022 21 23.2022C15.0553 23.2022 10.2192 18.3659 10.2192 12.4214C10.2192 12.0025 10.2435 11.5804 10.2914 11.1669C10.3436 10.7168 10.0209 10.3097 9.57093 10.2576C9.12041 10.205 8.71376 10.528 8.66169 10.9781C8.60657 11.4541 8.57857 11.9397 8.57857 12.4215C8.57857 17.3995 11.5224 21.7021 15.7602 23.682V27.8428H2.21721C1.15573 27.8428 0.291992 28.7065 0.291992 29.768V32.0744C0.291992 32.5275 0.659164 32.8948 1.1123 32.8948C1.56545 32.8948 1.93262 32.5275 1.93262 32.0744V29.768C1.93262 29.6111 2.06026 29.4835 2.21721 29.4835H12.8936L20.3825 38.0423C20.5384 38.2202 20.7633 38.3224 21 38.3224C21.2366 38.3224 21.4615 38.2202 21.6174 38.0423L29.1063 29.4835H39.7827C39.9397 29.4835 40.0673 29.6111 40.0673 29.768V39.6737C40.0673 40.1267 40.4345 40.494 40.8876 40.494C41.3408 40.494 41.7079 40.1267 41.7079 39.6737V29.768C41.7078 28.7062 40.8442 27.8426 39.7827 27.8426ZM21 36.2561L15.0737 29.4832H16.5804C17.0336 29.4832 17.4008 29.116 17.4008 28.6629V24.3105C18.5406 24.6562 19.7487 24.8429 20.9998 24.8429C22.251 24.8429 23.4593 24.6562 24.5989 24.3105V28.6629C24.5989 29.116 24.9661 29.4832 25.4193 29.4832H26.926L21 36.2561Z" />
<path d="M4.64795 48.0449H6.85765C7.31079 48.0449 7.67797 47.6776 7.67797 47.2246C7.67797 46.7716 7.31079 46.4043 6.85765 46.4043H4.64795C4.19481 46.4043 3.82764 46.7716 3.82764 47.2246C3.82764 47.6776 4.19492 48.0449 4.64795 48.0449Z" />
<path d="M12.603 46.4043H10.3933C9.94017 46.4043 9.573 46.7716 9.573 47.2246C9.573 47.6776 9.94017 48.0449 10.3933 48.0449H12.603C13.0562 48.0449 13.4233 47.6776 13.4233 47.2246C13.4233 46.7716 13.056 46.4043 12.603 46.4043Z" />
<path d="M18.3483 48.0449C18.8014 48.0449 19.1686 47.6776 19.1686 47.2246C19.1686 46.7716 18.8014 46.4043 18.3483 46.4043H16.1385C15.6854 46.4043 15.3182 46.7716 15.3182 47.2246C15.3182 47.6776 15.6854 48.0449 16.1385 48.0449H18.3483Z" />
<path d="M24.0935 48.0449C24.5466 48.0449 24.9138 47.6776 24.9138 47.2246C24.9138 46.7716 24.5466 46.4043 24.0935 46.4043H21.8838C21.4306 46.4043 21.0635 46.7716 21.0635 47.2246C21.0635 47.6776 21.4306 48.0449 21.8838 48.0449H24.0935Z" />
<path d="M4.64795 52.4648H13.4869C13.94 52.4648 14.3072 52.0976 14.3072 51.6445C14.3072 51.1915 13.94 50.8242 13.4869 50.8242H4.64795C4.19481 50.8242 3.82764 51.1915 3.82764 51.6445C3.82764 52.0976 4.19492 52.4648 4.64795 52.4648Z" />
<path d="M27.6927 49.4344C27.6927 51.1051 29.0521 52.4644 30.7228 52.4644C31.5936 52.4644 32.3792 52.0946 32.9325 51.5045C33.4857 52.0946 34.2713 52.4644 35.1422 52.4644C36.8129 52.4644 38.1722 51.1051 38.1722 49.4344C38.1722 47.7636 36.8129 46.4043 35.1422 46.4043C34.2713 46.4043 33.4857 46.7741 32.9325 47.3643C32.3792 46.7741 31.5936 46.4043 30.7228 46.4043C29.0521 46.4043 27.6927 47.7636 27.6927 49.4344ZM35.1423 48.0449C35.9085 48.0449 36.5317 48.6682 36.5317 49.4344C36.5317 50.2005 35.9085 50.8238 35.1423 50.8238C34.3761 50.8238 33.7529 50.2005 33.7529 49.4344C33.7529 48.6682 34.3761 48.0449 35.1423 48.0449ZM32.1123 49.4344C32.1123 50.2005 31.489 50.8238 30.7229 50.8238C29.9567 50.8238 29.3335 50.2005 29.3335 49.4344C29.3335 48.6682 29.9567 48.0449 30.7229 48.0449C31.489 48.0449 32.1123 48.6682 32.1123 49.4344Z" />
<path d="M18.2824 16.7146C17.9036 16.4666 17.3951 16.573 17.1469 16.952C16.8988 17.3311 17.0051 17.8396 17.3843 18.0875C18.445 18.7814 19.1688 18.9869 20.1055 19.0386V19.9427C20.1055 20.3958 20.4727 20.763 20.9258 20.763C21.3789 20.763 21.7461 20.3958 21.7461 19.9427V18.9737C23.6055 18.612 24.6915 17.0803 24.932 15.6495C25.2408 13.8127 24.2798 12.2155 22.4838 11.5807C22.2415 11.495 21.9934 11.405 21.7461 11.3114V7.37697C22.372 7.5243 22.745 7.84116 22.7771 7.86927C23.1103 8.17114 23.6253 8.14861 23.9307 7.81731C24.2379 7.48427 24.2169 6.96528 23.8839 6.65816C23.8367 6.61484 23.0437 5.90073 21.7461 5.70802V4.90039C21.7461 4.44736 21.3789 4.08008 20.9258 4.08008C20.4727 4.08008 20.1055 4.44736 20.1055 4.90039V5.77091C19.9806 5.79825 19.8538 5.82986 19.7242 5.86891C18.5418 6.22514 17.6583 7.23708 17.4185 8.50998C17.1998 9.67023 17.5713 10.789 18.388 11.4295C18.8225 11.7703 19.3636 12.0825 20.1055 12.4124V17.3958C19.4586 17.3497 19.0145 17.1935 18.2824 16.7146ZM19.4006 10.1387C19.0676 9.87761 18.9259 9.36989 19.0307 8.81383C19.1251 8.31311 19.4572 7.711 20.1055 7.4718V10.588C19.84 10.4446 19.5998 10.295 19.4006 10.1387ZM21.9371 13.1277C23.4745 13.6711 23.3796 14.9873 23.314 15.3778C23.1856 16.1422 22.6516 16.9525 21.7461 17.2714V13.0593C21.8096 13.0821 21.8718 13.1046 21.9371 13.1277Z" />
</symbol>
  <symbol id="salary" viewBox="0 0 56 56">
<path d="M26.973 22.6616C26.7822 22.5941 26.5878 22.524 26.3931 22.4518V18.922C27.037 19.1772 27.4893 19.5348 27.5071 19.549C27.9725 19.9306 28.6594 19.8644 29.0433 19.4003C29.4284 18.9348 29.3632 18.2455 28.8977 17.8603C28.8337 17.8074 27.8175 16.9818 26.3932 16.6337V16.0977C26.3932 15.4936 25.9034 15.0039 25.2995 15.0039C24.6955 15.0039 24.2057 15.4936 24.2057 16.0977V16.5831C24.0899 16.608 23.9736 16.6361 23.8565 16.6713C22.5991 17.0501 21.6914 18.1099 21.4282 19.5064C21.1726 20.8632 21.6147 22.2163 22.5546 22.9534C22.9835 23.2897 23.5062 23.5982 24.2058 23.9187V28.5446C23.7105 28.4751 23.3391 28.307 22.7474 27.9199C22.242 27.5891 21.5642 27.7308 21.2333 28.2364C20.9027 28.7419 21.0442 29.4197 21.5499 29.7505C22.5888 30.4301 23.3214 30.6688 24.2058 30.745V31.4251C24.2058 32.0292 24.6956 32.5189 25.2996 32.5189C25.9035 32.5189 26.3933 32.0292 26.3933 31.4251V30.6403C28.2125 30.1792 29.3785 28.6253 29.6361 27.0933C29.9672 25.1227 28.897 23.3418 26.973 22.6616V22.6616ZM24.2057 21.4442C24.0973 21.3748 23.9962 21.3042 23.9045 21.2323C23.6093 21.0007 23.475 20.4576 23.5779 19.9116C23.6124 19.7285 23.752 19.1848 24.2057 18.8962V21.4442ZM27.4787 26.7309C27.3787 27.3251 27.0103 27.9497 26.3931 28.3025V24.7821C27.5802 25.2813 27.5506 26.3026 27.4787 26.7309Z" />
<path d="M51.7903 23.3685L44.8438 18.7812V1.09375C44.8438 0.489672 44.354 0 43.75 0H17.5C16.896 0 16.4062 0.489672 16.4062 1.09375V5.25H12.25C11.646 5.25 11.1562 5.73967 11.1562 6.34375V18.7813L4.20973 23.3686C3.90327 23.571 3.71875 23.9139 3.71875 24.2812V54.9062C3.71875 55.5103 4.20853 56 4.8125 56H23.0781C23.6821 56 24.1719 55.5103 24.1719 54.9062C24.1719 54.3022 23.6821 53.8125 23.0781 53.8125H7.45314L23.3994 37.8663L27.3973 40.5065C27.58 40.6271 27.79 40.6875 28 40.6875C28.21 40.6875 28.42 40.6271 28.6028 40.5065L32.6007 37.8663L48.547 53.8125H32.9219C32.3179 53.8125 31.8281 54.3022 31.8281 54.9062C31.8281 55.5103 32.3179 56 32.9219 56H51.1875C51.7915 56 52.2812 55.5103 52.2812 54.9062V24.2812C52.2812 23.9139 52.0967 23.571 51.7903 23.3685V23.3685ZM49.2027 24.2812L44.8438 27.1598V21.4027L49.2027 24.2812ZM18.5938 2.1875H42.6562V28.6044L39.5938 30.6269V6.34375C39.5938 5.73967 39.104 5.25 38.5 5.25H18.5938V2.1875ZM11.1562 21.4027V27.1598L6.79733 24.2812L11.1562 21.4027ZM5.90625 52.2657V26.3143L21.536 36.6359L5.90625 52.2657ZM28 38.283L13.3438 28.6043V7.4375H37.4062V32.0714L28 38.283ZM50.0938 26.3143V52.2657L34.464 36.6358L50.0938 26.3143Z" />
<path d="M28 53.8125C27.7123 53.8125 27.4302 53.9295 27.2267 54.133C27.0233 54.3364 26.9062 54.6186 26.9062 54.9062C26.9062 55.1939 27.0232 55.4761 27.2267 55.6795C27.4303 55.883 27.7123 56 28 56C28.2877 56 28.5698 55.883 28.7732 55.6795C28.9766 55.4761 29.0938 55.1939 29.0938 54.9062C29.0938 54.6186 28.9767 54.3364 28.7732 54.133C28.5698 53.9295 28.2877 53.8125 28 53.8125Z" />
</symbol>
  <symbol id="foods" viewBox="0 0 63 56">
<path d="M24.3588 21.0253C23.8281 20.449 23.0725 20.1114 22.2859 20.0994C20.7036 20.0792 19.3946 21.3307 19.3678 22.8993C19.3592 23.405 19.7654 23.8217 20.2749 23.8303C20.2803 23.8304 20.2855 23.8304 20.2909 23.8304C20.7933 23.8304 21.2048 23.4306 21.2133 22.9302C21.2227 22.37 21.6869 21.9205 22.2569 21.9303C22.5415 21.9347 22.804 22.0519 22.9961 22.2604C23.3399 22.6338 23.9237 22.6599 24.2999 22.3188C24.6762 21.9779 24.7026 21.3986 24.3588 21.0253Z" />
<path d="M29.2687 24.0098C28.9858 23.3501 28.4352 22.8294 27.7576 22.5812C26.395 22.0825 24.876 22.7756 24.3711 24.1259C24.1938 24.6 24.4376 25.1269 24.9153 25.3028C25.0212 25.3417 25.1296 25.3602 25.2361 25.3602C25.6111 25.3602 25.9635 25.1319 26.1015 24.7627C26.2531 24.3572 26.71 24.1497 27.1185 24.2992C27.3239 24.3744 27.4843 24.5261 27.5701 24.7264C27.7695 25.1916 28.3117 25.4086 28.7805 25.2106C29.2497 25.0127 29.4681 24.4751 29.2687 24.0098Z" />
<path d="M35.2166 15.9004C34.8558 15.543 34.2714 15.5438 33.9115 15.9017L33.0416 16.7665C32.6816 17.1244 32.6822 17.7042 33.043 18.0612C33.223 18.2396 33.4589 18.3287 33.6947 18.3287C33.9312 18.3287 34.1677 18.2391 34.348 18.0599L35.2179 17.1951C35.578 16.8372 35.5773 16.2574 35.2166 15.9004Z" />
<path d="M29.4751 27.7202H28.2451C27.7353 27.7202 27.3223 28.1301 27.3223 28.6358C27.3223 29.1414 27.7353 29.5514 28.2451 29.5514H29.4751C29.9849 29.5514 30.3979 29.1414 30.3979 28.6358C30.3979 28.1301 29.9849 27.7202 29.4751 27.7202Z" />
<path d="M38.9059 27.7202H37.6758C37.166 27.7202 36.7529 28.1301 36.7529 28.6358C36.7529 29.1414 37.1661 29.5514 37.6758 29.5514H38.9059C39.4155 29.5514 39.8287 29.1414 39.8287 28.6358C39.8287 28.1301 39.4155 27.7202 38.9059 27.7202Z" />
<path opacity="0.99" d="M62.9703 44.229L62.73 42.9421C62.5768 42.1198 61.8531 41.5229 61.0091 41.5229C60.9032 41.5229 60.7964 41.5326 60.6913 41.5517L55.799 42.4434L58.0145 40.9739C58.5952 40.5889 58.8886 39.9002 58.762 39.2169C58.7268 39.0298 58.6609 38.8502 58.5654 38.6821L57.8949 37.5042C57.6652 37.0995 57.2734 36.7988 56.8212 36.6797C56.5997 36.6211 56.3682 36.608 56.1423 36.6372C56.389 35.2863 56.5162 33.9066 56.5162 32.5021C56.5162 31.8789 56.1384 31.3426 55.5989 31.1044C56.3039 29.4407 56.352 27.5361 55.6551 25.7919C55.5986 25.65 55.5147 25.5234 55.4061 25.4155C55.2983 25.3086 55.1722 25.2259 55.0291 25.1689C54.1939 24.8389 53.3162 24.6717 52.4203 24.6717C52.3058 24.6717 52.1917 24.6746 52.078 24.68C51.9502 22.1246 49.8184 20.0845 47.216 20.0845C46.8733 20.0845 46.5391 20.1207 46.2163 20.1881C46.4405 18.8574 46.3085 17.4654 45.7862 16.1584C45.7301 16.0148 45.6458 15.8858 45.5312 15.7704C45.421 15.661 45.2917 15.5766 45.1482 15.5201C44.2486 15.1646 43.3031 14.9844 42.3379 14.9844C40.884 14.9844 39.4932 15.39 38.2925 16.1439C37.8539 14.8832 37.1305 13.6997 36.1198 12.6946C35.8237 12.4004 35.43 12.2383 35.011 12.2383C34.592 12.2383 34.1983 12.4004 33.9019 12.6949L29.4337 17.138C28.6068 16.4063 27.5187 15.9689 26.3377 15.9689C26.0697 15.9689 25.7991 15.9922 25.5335 16.0381C24.5709 16.2043 23.6851 16.6718 23.006 17.3564C22.1352 16.9395 21.1376 16.7973 20.179 16.9628C19.9681 16.9992 19.7635 17.0505 19.5649 17.113V13.6892C19.5649 11.3314 17.6548 9.40979 15.2921 9.36926V7.42751C16.0153 7.30336 16.5676 6.67796 16.5676 5.92548V1.52596C16.5676 0.684606 15.8777 0 15.0295 0H7.52478C6.67662 0 5.9867 0.684606 5.9867 1.52596V5.92548C5.9867 6.67796 6.53893 7.30336 7.2622 7.42751V9.36902C4.89946 9.40943 2.98954 11.331 2.98954 13.6889V40.411C1.14704 42.0619 0 44.3654 0 46.9126C0 51.9234 4.43275 56 9.88149 56L46.8184 55.9893C48.0791 55.9888 49.2648 55.4391 50.0713 54.4812C50.8568 53.5488 51.1906 52.3377 50.9983 51.1433L58.3758 52.4587C58.4779 52.4769 58.5825 52.4861 58.6862 52.4861C59.0541 52.4861 59.4067 52.3741 59.7052 52.1624C60.089 51.8904 60.3487 51.4694 60.418 51.0076L60.6178 49.6773C60.6466 49.4867 60.6434 49.2948 60.6083 49.1067C60.4814 48.4265 59.9593 47.8868 59.2782 47.732L56.6779 47.1402L61.5654 46.2494C62.0263 46.1654 62.4262 45.9087 62.6915 45.5264C62.9563 45.1452 63.0552 44.6845 62.9703 44.229ZM52.4203 26.5026C52.9759 26.5026 53.5221 26.5899 54.0473 26.7619C54.5166 28.1797 54.3409 29.709 53.606 30.9722H51.12L51.9133 30.1833C52.2733 29.8254 52.2726 29.2457 51.9117 28.8885C51.5508 28.5313 50.9664 28.5319 50.6066 28.8899L50.1869 29.3073C49.9902 28.6646 49.6466 28.0891 49.1951 27.617C50.111 26.8955 51.2354 26.5026 52.4203 26.5026ZM47.216 21.9155C48.8826 21.9155 50.2385 23.2646 50.2385 24.9231C50.2385 24.9538 50.237 24.9842 50.2361 25.0147C49.2633 25.3286 48.3667 25.8529 47.602 26.565C47.4803 26.5192 47.3569 26.4767 47.2301 26.4419C46.9602 24.9951 45.9774 23.8354 44.6791 23.2937C45.2179 22.4655 46.1529 21.9155 47.216 21.9155ZM42.3378 16.8153C42.9646 16.8153 43.5806 16.9159 44.1741 17.1149C44.6512 18.5222 44.5537 20.0339 43.9459 21.3433C43.4462 21.7948 43.0408 22.3478 42.7637 22.9695C42.5989 22.979 42.4341 22.9971 42.2714 23.0251C41.5482 23.15 40.8739 23.4613 40.3096 23.9128C40.1172 23.5636 39.8816 23.2415 39.6116 22.9514L41.7279 20.847C42.0879 20.4891 42.0872 19.9094 41.7263 19.5523C41.3655 19.1951 40.7811 19.1957 40.4211 19.5538L38.1081 21.8538C37.6679 21.6474 37.1922 21.5038 36.6923 21.4367C36.9083 20.3441 37.4426 19.3146 38.2693 18.4925C39.3569 17.4109 40.8018 16.8153 42.3378 16.8153ZM35.2663 30.9722H34.4664C34.3317 30.6321 33.9986 30.391 33.6079 30.391C33.2172 30.391 32.8841 30.6322 32.7494 30.9722H31.8084C32.0269 30.6192 31.9827 30.1514 31.6742 29.8459C31.3135 29.4887 30.7291 29.4893 30.3691 29.8473L29.4993 30.7121C29.4211 30.7897 29.3611 30.8782 29.3169 30.9722H27.4386C26.7352 29.9012 26.3058 28.6371 26.255 27.2772H40.8958C40.845 28.6371 40.4157 29.9012 39.7122 30.9722H37.7576C37.7136 30.8782 37.6533 30.7896 37.5753 30.7119L36.7056 29.8471C36.3454 29.4893 35.7613 29.4884 35.4006 29.8457C35.0918 30.1511 35.0477 30.619 35.2663 30.9722ZM33.12 25.446C33.4679 24.167 34.6438 23.2233 36.0375 23.2233C37.4312 23.2233 38.6072 24.1672 38.955 25.446H33.12ZM35.0072 14.188C35.885 15.1292 36.4654 16.2467 36.75 17.4213C36.2789 17.9293 35.8875 18.4906 35.5787 19.0879C35.4386 19.0027 35.2743 18.9528 35.098 18.9528H33.8683C33.3586 18.9528 32.9454 19.3627 32.9454 19.8683C32.9454 20.374 33.3586 20.7839 33.8683 20.7839H34.947C34.8864 21.0367 34.8392 21.2926 34.805 21.5504C34.4386 21.6459 34.0887 21.7819 33.7611 21.955C33.146 20.9019 32.1274 20.117 30.9206 19.8022C30.9202 19.7996 30.9197 19.7971 30.9192 19.7945C30.8469 19.3802 30.7206 18.9871 30.5485 18.6217L35.0072 14.188ZM18.3248 22.4497C18.2707 22.2995 18.2297 22.1454 18.2027 21.9909C17.9381 20.477 18.9667 19.0307 20.4953 18.7666C20.6565 18.7388 20.8203 18.7246 20.982 18.7246C21.59 18.7246 22.171 18.917 22.6621 19.2809C22.8652 19.4316 23.1221 19.4925 23.3722 19.4495C23.6222 19.4064 23.8433 19.2632 23.9836 19.0534C24.4168 18.405 25.0797 17.9748 25.85 17.8418C26.0115 17.8138 26.1757 17.7998 26.3377 17.7998C27.705 17.7998 28.8671 18.7703 29.1006 20.1076C29.1274 20.2608 29.1412 20.4205 29.1414 20.5823C29.1423 21.0562 29.5076 21.4512 29.9836 21.4927C31.0153 21.5827 31.8936 22.2269 32.3008 23.1344C31.7557 23.7835 31.3778 24.576 31.2343 25.446H25.9714C25.317 25.446 24.7556 25.8468 24.5214 26.414C23.3636 25.6316 21.999 25.2101 20.5689 25.2101C19.673 25.2101 18.7953 25.3774 17.9596 25.7075C17.8179 25.7637 17.6911 25.8466 17.5831 25.9538C17.4736 26.0624 17.3895 26.1897 17.3344 26.3294C17.122 26.8608 16.9804 27.4071 16.9039 27.9568C16.5731 27.5832 16.3401 27.1187 16.249 26.5975C16.032 25.3552 16.6874 24.1183 17.8425 23.5895C18.2766 23.3907 18.4859 22.8961 18.3248 22.4497ZM21.0759 30.7218L21.3276 30.9722H19.1112C18.6136 29.8269 18.538 28.5232 18.942 27.3005C19.4679 27.1283 20.0139 27.0411 20.5689 27.0411C21.9595 27.0411 23.2676 27.5803 24.2521 28.5592C24.383 28.6895 24.5049 28.826 24.6195 28.967C24.7759 29.6694 25.0162 30.3405 25.3258 30.9721H23.935L22.3825 29.4283C22.0224 29.0705 21.438 29.0695 21.0775 29.4268C20.7166 29.7842 20.7158 30.3639 21.0759 30.7218ZM17.1458 30.9722H13.8559C14.0026 30.0853 14.5403 29.3293 15.2867 28.8835C15.7285 29.4708 16.3052 29.9457 16.9697 30.2673C17.0167 30.5049 17.0744 30.7404 17.1458 30.9722ZM7.83239 1.83115H14.7219V5.62029H7.83239V1.83115ZM13.4464 7.45144V9.36719H9.10802V7.45144H13.4464ZM4.83535 17.402H10.8281C11.3379 17.402 11.7509 16.9921 11.7509 16.4865C11.7509 15.9808 11.3379 15.5709 10.8281 15.5709H4.83535V13.6889C4.83535 12.3156 5.95803 11.1983 7.33799 11.1983H15.2164C16.5965 11.1983 17.7192 12.3156 17.7192 13.6889V15.5709H15.996C15.4862 15.5709 15.0732 15.9808 15.0732 16.4865C15.0732 16.9921 15.4862 17.402 15.996 17.402H17.7192V18.2147C16.6618 19.2432 16.1127 20.7515 16.3839 22.3029C16.3844 22.306 16.385 22.3092 16.3855 22.3123C14.905 23.3201 14.1161 25.1117 14.4303 26.9102C14.4486 27.0152 14.4716 27.1185 14.4967 27.2207C14.0357 27.4729 13.6216 27.7986 13.2667 28.1797H4.83535V17.402ZM4.83523 30.0107H12.1951C12.0972 30.3193 12.028 30.6405 11.9943 30.9722H11.8388C10.9894 30.9722 10.2982 31.6584 10.2982 32.5018C10.2982 33.9556 10.4345 35.3828 10.6984 36.7791C10.4332 36.758 10.1613 36.7467 9.88469 36.7467C8.76866 36.7467 7.70529 36.9223 6.89084 37.2415C5.645 37.7295 5.30059 38.4225 5.22541 38.9021C5.09338 38.9672 4.96369 39.0361 4.83523 39.1065V30.0107ZM16.5211 41.2583C16.8534 41.5221 17.0566 41.7463 17.1743 41.9081C17.1632 41.9082 17.1517 41.9083 17.14 41.9083C16.6177 41.9083 15.6792 41.6994 14.612 41.1134C14.2147 40.895 13.8486 40.6482 13.5533 40.4001C13.209 40.1106 12.7042 40.1109 12.3601 40.4002C12.0648 40.6486 11.6989 40.8952 11.3019 41.1131C10.2345 41.6994 9.29603 41.9083 8.77382 41.9083C8.76189 41.9083 8.75044 41.9082 8.73925 41.9081C8.85688 41.7463 9.06003 41.5219 9.3925 41.258C9.68301 41.0273 9.80544 40.6459 9.70295 40.291C9.60033 39.936 9.29296 39.6769 8.9232 39.6339C8.02262 39.5292 7.45317 39.3017 7.18652 39.1362C7.5206 38.9298 8.36519 38.5778 9.88505 38.5778C11.1438 38.5778 12.0638 38.8404 12.5051 39.0863C12.7858 39.2425 13.1279 39.2425 13.4086 39.0864C13.8501 38.8405 14.7702 38.5779 16.029 38.5779C17.549 38.5779 18.3935 38.93 18.7274 39.1363C18.4609 39.302 17.8913 39.5293 16.9905 39.634C16.6207 39.6771 16.3132 39.9362 16.2107 40.2913C16.1079 40.6463 16.2303 41.0277 16.5211 41.2583ZM14.675 52.4022L14.7068 52.5718C14.8165 53.1599 15.048 53.6996 15.3713 54.1688H9.88149C5.45059 54.1688 1.8457 50.9138 1.8457 46.9126C1.8457 44.1782 3.52996 41.7933 6.01008 40.5567C6.29493 40.7676 6.65004 40.9495 7.07135 41.0963C6.90426 41.3794 6.78785 41.6838 6.76041 42.0013C6.72399 42.4235 6.85418 42.8244 7.12734 43.1303C7.48823 43.5346 8.04219 43.7396 8.77382 43.7396C9.74884 43.7396 11.0282 43.3566 12.1959 42.7152C12.4647 42.5677 12.7189 42.4118 12.9569 42.2489C13.1948 42.4116 13.449 42.5675 13.7179 42.7154C14.8857 43.3566 16.165 43.7395 17.14 43.7396H17.1401C17.8715 43.7396 18.4255 43.5346 18.7862 43.1304C19.0595 42.8245 19.1898 42.4236 19.1533 42.0013C19.1258 41.6838 19.0094 41.3794 18.8423 41.0963C19.2637 40.9494 19.6189 40.7675 19.9037 40.5567C21.8706 41.5374 23.3362 43.2405 23.8588 45.2674L17.3318 47.7274C15.4213 48.4476 14.3039 50.4135 14.675 52.4022ZM48.6548 53.3072C48.1997 53.8478 47.53 54.1579 46.8176 54.1581L45.8489 54.1585L45.2438 50.9167C45.1509 50.4195 44.6697 50.0908 44.1682 50.1832C43.6672 50.2752 43.3361 50.7529 43.4289 51.2501L43.972 54.1591L40.7966 54.1603L40.3875 51.9682C40.2946 51.471 39.8133 51.1426 39.312 51.2346C38.8109 51.3267 38.4798 51.8043 38.5726 52.3016L38.9196 54.161L31.5337 54.1638L30.9778 51.1866C30.8848 50.6894 30.4037 50.361 29.9022 50.4532C29.4011 50.5452 29.0701 51.0231 29.1629 51.5203L29.6566 54.1646L18.8724 54.1687C18.8721 54.1687 18.8719 54.1687 18.8716 54.1687C17.7184 54.1687 16.7301 53.3569 16.5212 52.238L16.4894 52.0683C16.2809 50.9505 16.9106 49.8449 17.9869 49.4391L21.614 48.0721L21.8842 49.5189C21.9665 49.9598 22.3543 50.2679 22.7904 50.2679C22.8463 50.2679 22.9029 50.2628 22.9597 50.2524C23.4608 50.1602 23.7918 49.6825 23.6989 49.1853L23.3675 47.4112L28.7514 45.382C29.2278 45.2024 29.4674 44.6736 29.2864 44.2009C29.1054 43.7281 28.5717 43.4906 28.096 43.6701L25.5907 44.6144C24.8879 42.1456 23.0823 40.0834 20.6879 38.9019C20.6127 38.4224 20.2683 37.7294 19.0226 37.2413C18.2082 36.9222 17.1448 36.7466 16.0288 36.7466C15.2607 36.7466 14.5272 36.8307 13.8798 36.9839V36.4309C13.8798 35.9252 13.4667 35.5153 12.9569 35.5153C12.7415 35.5153 12.5438 35.589 12.3867 35.7118C12.2411 34.7568 12.1597 33.7868 12.1462 32.8031H42.2049C42.7147 32.8031 43.1278 32.3932 43.1278 31.8875C43.1278 31.3819 42.7147 30.972 42.2049 30.972H41.8273C42.415 29.7712 42.7469 28.4249 42.7469 27.0021C42.7469 26.1944 42.1239 25.5289 41.3301 25.4534C41.6757 25.13 42.1071 24.9119 42.588 24.8288C42.7288 24.8045 42.8718 24.7922 43.0131 24.7922C44.2045 24.7922 45.217 25.6378 45.4204 26.8027C45.4439 26.9376 45.4559 27.0767 45.456 27.2165C45.4567 27.6907 45.8221 28.0859 46.2982 28.1275C47.401 28.2235 48.3033 29.0464 48.4925 30.1285C48.5427 30.4163 48.5364 30.7002 48.4861 30.972H47.4959C46.9861 30.972 46.5731 31.3819 46.5731 31.8875C46.5731 32.3932 46.9861 32.8031 47.4959 32.8031H54.6685C54.6456 34.4826 54.4276 36.1232 54.0209 37.715L49.0196 40.6441C48.7137 39.5879 48.0027 38.692 47.0232 38.148C45.9245 37.538 44.6188 37.4426 43.4413 37.8864L33.1409 41.7687C32.6644 41.9482 32.4249 42.4771 32.6059 42.9498C32.7869 43.4226 33.3205 43.6599 33.7963 43.4805L35.1532 42.9692L35.5746 45.226C35.6569 45.6668 36.0447 45.9751 36.4809 45.9751C36.5367 45.9751 36.5933 45.9699 36.6501 45.9596C37.1511 45.8675 37.4823 45.3898 37.3895 44.8926L36.907 42.3082L44.0965 39.5985C44.7627 39.3475 45.5007 39.4014 46.1217 39.7462C46.7416 40.0904 47.1711 40.6836 47.3 41.3736L49.167 51.3735C49.2957 52.0632 49.109 52.7679 48.6548 53.3072ZM51.9475 46.1406C51.5169 46.2191 51.2013 46.5868 51.1916 47.021C51.182 47.4552 51.4813 47.8364 51.9079 47.9334L58.7788 49.497L58.6071 50.6395L50.6418 49.2194L49.3967 42.5498L56.3346 38.4866L56.9125 39.5019L51.0607 43.3829C50.6968 43.6242 50.5539 44.0859 50.7185 44.4883C50.883 44.8907 51.31 45.1231 51.7404 45.0446L60.9327 43.3693L61.1374 44.4656L51.9475 46.1406Z" />
</symbol>
  <symbol id="other" viewBox="0 0 56 56">
  <path d="M55.9927 39.084C54.3202 25.6665 41.8004 23.6786 38.2667 23.3855V11.1998C38.2667 11.116 38.1491 2.7998 28 2.7998C17.8509 2.7998 17.7333 11.116 17.7333 11.1998V23.3855C14.1996 23.6786 1.68483 25.6665 0.00729167 39.084C0.00729167 39.1027 0 39.1775 0 39.1998V42.9331C0 43.4486 0.417904 43.8665 0.933333 43.8665H5.6V45.7331H2.8C2.28457 45.7331 1.86667 46.151 1.86667 46.6665C1.86667 48.926 3.23203 53.1998 8.4 53.1998C13.568 53.1998 14.9333 48.926 14.9333 46.6665C14.9333 46.151 14.5154 45.7331 14 45.7331H11.2V43.8665H25.2V45.7331H22.4C21.8846 45.7331 21.4667 46.151 21.4667 46.6665C21.4667 48.926 22.832 53.1998 28 53.1998C33.168 53.1998 34.5333 48.926 34.5333 46.6665C34.5333 46.151 34.1154 45.7331 33.6 45.7331H30.8V43.8665H44.8V45.7331H42C41.4846 45.7331 41.0667 46.151 41.0667 46.6665C41.0667 48.926 42.432 53.1998 47.6 53.1998C52.768 53.1998 54.1333 48.926 54.1333 46.6665C54.1333 46.151 53.7154 45.7331 53.2 45.7331H50.4V43.8665H55.0667C55.5821 43.8665 56 43.4486 56 42.9331V39.1998C56 39.1784 56 39.1064 55.9927 39.084ZM19.6 11.1998C19.6 10.9327 19.6934 4.66647 28 4.66647C36.2487 4.66647 36.4 10.9364 36.4 11.1998V23.3331H34.5333V17.7331H32.6667V23.3331H19.6V11.1998ZM10.8268 27.0104C13.3041 25.9226 15.9633 25.3083 18.6667 25.1998H37.3333C40.0367 25.3083 42.6959 25.9226 45.1732 27.0104C49.88 28.9582 53.2223 33.2293 53.9811 38.2665H2.01888C2.77767 33.2293 6.11999 28.9582 10.8268 27.0104ZM8.4 51.3331C6.12591 51.504 4.1166 49.8625 3.83132 47.5998H12.9641C12.6679 49.8548 10.6686 51.4899 8.4 51.3331ZM9.33333 45.7331H7.46667V43.8665H9.33333V45.7331ZM28 51.3331C25.7259 51.504 23.7166 49.8625 23.4313 47.5998H32.5641C32.2679 49.8548 30.2686 51.4899 28 51.3331ZM28.9333 45.7331H27.0667V43.8665H28.9333V45.7331ZM47.6 51.3331C45.3241 51.5068 43.312 49.8643 43.0268 47.5998H52.1641C51.8679 49.8548 49.8686 51.4899 47.6 51.3331ZM48.5333 45.7331H46.6667V43.8665H48.5333V45.7331ZM54.1333 41.9998H1.86667V40.1331H54.1333V41.9998Z" />
<path d="M28 27.0669C25.4228 27.0669 23.3333 29.1564 23.3333 31.7336C23.3333 34.3107 25.4228 36.4002 28 36.4002C30.5771 36.4002 32.6666 34.3107 32.6666 31.7336C32.6635 29.1573 30.5762 27.0701 28 27.0669ZM28 34.5336C26.4537 34.5336 25.2 33.2798 25.2 31.7336C25.2 30.1873 26.4537 28.9336 28 28.9336C29.5463 28.9336 30.8 30.1873 30.8 31.7336C30.8 33.2798 29.5463 34.5336 28 34.5336Z" />
<path d="M29.8667 31.7334C29.8667 32.7642 29.0309 33.6 28 33.6C26.9692 33.6 26.1334 32.7642 26.1334 31.7334C26.1334 30.7025 26.9692 29.8667 28 29.8667C29.0309 29.8667 29.8667 30.7025 29.8667 31.7334Z" />
<path d="M32.6667 14H34.5334V15.8667H32.6667V14Z" />
<path d="M32.6667 11.1999V12.1332H34.5333V11.1999C34.5333 10.7218 34.3465 6.5332 28 6.5332V8.39987C32.3308 8.39987 32.6667 10.5464 32.6667 11.1999Z" />
<path d="M19.6 30.7998H21.4666V32.6665H19.6V30.7998Z" />
<path d="M15.8666 30.7998H17.7333V32.6665H15.8666V30.7998Z" />
<path d="M34.5333 30.7998H36.4V32.6665H34.5333V30.7998Z" />
<path d="M38.2667 30.7998H40.1333V32.6665H38.2667V30.7998Z" />
</symbol>
  <symbol id="utilities" viewBox="0 0 56 56">
  <path d="M53.6881 0H2.31193C1.52336 0 0.878174 0.645189 0.878174 1.43375C0.878174 2.22232 1.52336 2.86751 2.31193 2.86751H5.40644V54.5304C5.40644 55.0561 5.69319 55.546 6.15916 55.7969C6.62513 56.0478 7.18669 56.0239 7.62876 55.7252L13.8536 51.5793L20.1024 55.7371C20.5803 56.0597 21.2136 56.0597 21.6915 55.7371L27.9164 51.5912L34.1651 55.7491C34.6431 56.0717 35.2763 56.0717 35.7542 55.7491L41.9791 51.6032L48.2279 55.761C48.4668 55.9164 48.7416 56 49.0164 56C49.2434 56 49.4824 55.9403 49.6975 55.8327C50.1634 55.5818 50.4502 55.092 50.4502 54.5662L50.4263 2.90335H53.6881C54.4766 2.90335 55.1218 2.25816 55.1218 1.4696C55.1218 0.681033 54.4766 0 53.6881 0ZM47.5946 51.8541L42.7796 48.652C42.3017 48.3294 41.6684 48.3294 41.1905 48.652L34.9656 52.8099L28.7169 48.652C28.239 48.3294 27.6057 48.3294 27.1278 48.652L20.9029 52.798L14.6541 48.652C14.1762 48.3294 13.543 48.3294 13.0651 48.652L8.27395 51.8421V2.85556H47.5827L47.5946 51.8541Z" />
<path d="M14.8692 22.8924H29.8877C30.6763 22.8924 31.3215 22.2472 31.3215 21.4587C31.3215 20.6701 30.6763 20.0249 29.8877 20.0249H14.8692C14.0806 20.0249 13.4354 20.6701 13.4354 21.4587C13.4354 22.2472 14.0687 22.8924 14.8692 22.8924Z" />
<path d="M14.8692 27.8748H26.1241C26.9127 27.8748 27.5579 27.2296 27.5579 26.4411C27.5579 25.6525 26.9127 25.0073 26.1241 25.0073H14.8692C14.0806 25.0073 13.4354 25.6525 13.4354 26.4411C13.4354 27.2296 14.0687 27.8748 14.8692 27.8748Z" />
<path d="M37.3912 22.8924H41.1428C41.9314 22.8924 42.5766 22.2472 42.5766 21.4587C42.5766 20.6701 41.9314 20.0249 41.1428 20.0249H37.3912C36.6026 20.0249 35.9574 20.6701 35.9574 21.4587C35.9574 22.2472 36.5906 22.8924 37.3912 22.8924Z" />
<path d="M37.3912 27.8748H41.1428C41.9314 27.8748 42.5766 27.2296 42.5766 26.4411C42.5766 25.6525 41.9314 25.0073 41.1428 25.0073H37.3912C36.6026 25.0073 35.9574 25.6525 35.9574 26.4411C35.9574 27.2296 36.5906 27.8748 37.3912 27.8748Z" />
<path d="M14.8692 11.3865H29.8877C30.6763 11.3865 31.3215 10.7414 31.3215 9.9528C31.3215 9.16423 30.6763 8.51904 29.8877 8.51904H14.8692C14.0806 8.51904 13.4354 9.16423 13.4354 9.9528C13.4354 10.7414 14.0687 11.3865 14.8692 11.3865Z" />
<path d="M14.8692 16.3568H26.1241C26.9127 16.3568 27.5579 15.7116 27.5579 14.923C27.5579 14.1344 26.9127 13.4893 26.1241 13.4893H14.8692C14.0806 13.4893 13.4354 14.1344 13.4354 14.923C13.4354 15.7116 14.0687 16.3568 14.8692 16.3568Z" />
<path d="M37.3912 11.3865H41.1428C41.9314 11.3865 42.5766 10.7414 42.5766 9.9528C42.5766 9.16423 41.9314 8.51904 41.1428 8.51904H37.3912C36.6026 8.51904 35.9574 9.16423 35.9574 9.9528C35.9574 10.7414 36.5906 11.3865 37.3912 11.3865Z" />
<path d="M37.3912 16.3568H41.1428C41.9314 16.3568 42.5766 15.7116 42.5766 14.923C42.5766 14.1344 41.9314 13.4893 41.1428 13.4893H37.3912C36.6026 13.4893 35.9574 14.1344 35.9574 14.923C35.9574 15.7116 36.5906 16.3568 37.3912 16.3568Z" />
<path d="M14.8692 34.5413H29.8877C30.6763 34.5413 31.3215 33.8961 31.3215 33.1076C31.3215 32.319 30.6763 31.6738 29.8877 31.6738H14.8692C14.0806 31.6738 13.4354 32.319 13.4354 33.1076C13.4354 33.8961 14.0687 34.5413 14.8692 34.5413Z" />
<path d="M14.8692 39.5116H26.1241C26.9127 39.5116 27.5579 38.8664 27.5579 38.0778C27.5579 37.2892 26.9127 36.644 26.1241 36.644H14.8692C14.0806 36.644 13.4354 37.2892 13.4354 38.0778C13.4354 38.8664 14.0687 39.5116 14.8692 39.5116Z" />
<path d="M37.3912 34.5413H41.1428C41.9314 34.5413 42.5766 33.8961 42.5766 33.1076C42.5766 32.319 41.9314 31.6738 41.1428 31.6738H37.3912C36.6026 31.6738 35.9574 32.319 35.9574 33.1076C35.9574 33.8961 36.5906 34.5413 37.3912 34.5413Z" />
<path d="M37.3912 39.5116H41.1428C41.9314 39.5116 42.5766 38.8664 42.5766 38.0778C42.5766 37.2892 41.9314 36.644 41.1428 36.644H37.3912C36.6026 36.644 35.9574 37.2892 35.9574 38.0778C35.9574 38.8664 36.5906 39.5116 37.3912 39.5116Z" />
</symbol>
  </defs>
</svg>
