<svg width="56" height="56" viewBox="0 0 56 56" fill="none" xmlns="http://www.w3.org/2000/svg">
<g clip-path="url(#clip0_11_1068)">
<path d="M54.2246 20.9157H53.112V16.7807C53.112 14.3363 51.1234 12.3477 48.679 12.3477H32.6128C31.1234 12.3477 29.8042 13.0867 29 14.2164C28.1958 13.0866 26.8766 12.3477 25.3872 12.3477H15.2939C14.8409 12.3477 14.4736 12.7149 14.4736 13.168C14.4736 13.621 14.8409 13.9883 15.2939 13.9883H25.3872C26.927 13.9883 28.1797 15.241 28.1797 16.7807V24.985C28.1625 24.9684 28.1444 24.953 28.127 24.9367C27.1546 24.0301 25.8368 23.5075 24.5065 23.5075H10.8425C10.7702 22.4061 10.0194 21.4374 8.98328 21.0701C8.69136 20.9666 8.3827 20.9157 8.07306 20.9157H6.52858V16.7807C6.52858 15.241 7.78125 13.9883 9.32103 13.9883H12.0126C12.4657 13.9883 12.833 13.621 12.833 13.168C12.833 12.7149 12.4657 12.3477 12.0126 12.3477H9.32103C6.87661 12.3477 4.88795 14.3363 4.88795 16.7807V20.9157H3.77539C2.24502 20.9157 1 22.1609 1 23.691V32.2563C1 35.4433 3.59284 38.0361 6.77981 38.0361H7.19205C7.19205 38.0361 6.29386 40.452 6.2932 40.4539C5.72653 41.9779 6.89291 43.6521 8.51625 43.6521H9.83597C10.5747 43.6521 11.2818 43.3003 11.7275 42.7111L15.2637 38.0361H42.7365L46.2727 42.7112C46.7184 43.3003 47.4255 43.6521 48.1641 43.6521C48.1641 43.6521 49.483 43.6521 49.4837 43.6521C51.1091 43.6521 52.2734 41.9776 51.7068 40.4539L50.8078 38.0361H51.2202C54.4072 38.0361 57 35.4433 57 32.2563V23.691C57 22.1609 55.755 20.9157 54.2246 20.9157ZM29.8203 16.781C29.8203 15.2411 31.073 13.9884 32.6128 13.9884H48.679C50.2188 13.9884 51.4714 15.2411 51.4714 16.7808V20.9158C51.4714 20.9158 49.9274 20.9158 49.9268 20.9158C48.8361 20.9158 47.7899 21.6158 47.3668 22.62C47.2483 22.9013 47.1774 23.2033 47.1575 23.5077C47.1575 23.5077 33.4939 23.5077 33.4935 23.5077C32.1427 23.5077 30.7964 24.0512 29.8203 24.9852V16.781ZM10.8486 25.1482H24.5065C26.532 25.1484 28.1797 26.7961 28.1797 28.8215V29.988H10.8486V25.1482ZM10.419 41.7214C10.2817 41.9031 10.0636 42.0115 9.83586 42.0115C9.83586 42.0115 8.52073 42.0115 8.51614 42.0115C8.01389 42.0115 7.65591 41.4962 7.83091 41.0257L8.94237 38.0361H13.2065L10.419 41.7214ZM49.4837 42.0114H48.1641C47.9364 42.0114 47.7184 41.903 47.5811 41.7214L44.7935 38.0361H49.0576C49.0576 38.0361 50.1653 41.0152 50.1691 41.0256C50.3444 41.4972 49.9839 42.0114 49.4837 42.0114ZM51.2202 36.3955H6.77981C4.49748 36.3956 2.64062 34.5386 2.64062 32.2563V23.691C2.64062 23.0653 3.14966 22.5563 3.77539 22.5563H8.07306C8.6988 22.5563 9.20783 23.0653 9.20783 23.691V30.8082C9.20783 31.2612 9.57511 31.6285 10.0281 31.6285H40.1584C40.6115 31.6285 40.9787 31.2612 40.9787 30.8082C40.9787 30.3552 40.6115 29.9879 40.1584 29.9879H29.8203V28.8214C29.8203 26.796 31.468 25.1482 33.4935 25.1482H47.1514V29.988H43.4397C42.9867 29.988 42.6194 30.3553 42.6194 30.8083C42.6194 31.2613 42.9867 31.6286 43.4397 31.6286H47.9717C48.4248 31.6286 48.7921 31.2613 48.7921 30.8083V23.6912C48.7921 23.0654 49.3011 22.5564 49.9268 22.5564H54.2245C54.8502 22.5564 55.3593 23.0654 55.3593 23.6912V32.2563H55.3594C55.3594 34.5386 53.5025 36.3955 51.2202 36.3955Z" fill="#071F41"/>
</g>
<defs>
<clipPath id="clip0_11_1068">
<rect width="56" height="56" fill="white"/>
</clipPath>
</defs>
</svg>
