<svg width="63" height="56" viewBox="0 0 63 56" fill="none" xmlns="http://www.w3.org/2000/svg">
<path d="M24.3588 21.0253C23.8281 20.449 23.0725 20.1114 22.2859 20.0994C20.7036 20.0792 19.3946 21.3307 19.3678 22.8993C19.3592 23.405 19.7654 23.8217 20.2749 23.8303C20.2803 23.8304 20.2855 23.8304 20.2909 23.8304C20.7933 23.8304 21.2048 23.4306 21.2133 22.9302C21.2227 22.37 21.6869 21.9205 22.2569 21.9303C22.5415 21.9347 22.804 22.0519 22.9961 22.2604C23.3399 22.6338 23.9237 22.6599 24.2999 22.3188C24.6762 21.9779 24.7026 21.3986 24.3588 21.0253Z" fill="black"/>
<path d="M29.2687 24.0098C28.9858 23.3501 28.4352 22.8294 27.7576 22.5812C26.395 22.0825 24.876 22.7756 24.3711 24.1259C24.1938 24.6 24.4376 25.1269 24.9153 25.3028C25.0212 25.3417 25.1296 25.3602 25.2361 25.3602C25.6111 25.3602 25.9635 25.1319 26.1015 24.7627C26.2531 24.3572 26.71 24.1497 27.1185 24.2992C27.3239 24.3744 27.4843 24.5261 27.5701 24.7264C27.7695 25.1916 28.3117 25.4086 28.7805 25.2106C29.2497 25.0127 29.4681 24.4751 29.2687 24.0098Z" fill="black"/>
<path d="M35.2166 15.9004C34.8558 15.543 34.2714 15.5438 33.9115 15.9017L33.0416 16.7665C32.6816 17.1244 32.6822 17.7042 33.043 18.0612C33.223 18.2396 33.4589 18.3287 33.6947 18.3287C33.9312 18.3287 34.1677 18.2391 34.348 18.0599L35.2179 17.1951C35.578 16.8372 35.5773 16.2574 35.2166 15.9004Z" fill="black"/>
<path d="M29.4751 27.7202H28.2451C27.7353 27.7202 27.3223 28.1301 27.3223 28.6358C27.3223 29.1414 27.7353 29.5514 28.2451 29.5514H29.4751C29.9849 29.5514 30.3979 29.1414 30.3979 28.6358C30.3979 28.1301 29.9849 27.7202 29.4751 27.7202Z" fill="black"/>
<path d="M38.9059 27.7202H37.6758C37.166 27.7202 36.7529 28.1301 36.7529 28.6358C36.7529 29.1414 37.1661 29.5514 37.6758 29.5514H38.9059C39.4155 29.5514 39.8287 29.1414 39.8287 28.6358C39.8287 28.1301 39.4155 27.7202 38.9059 27.7202Z" fill="black"/>
<path opacity="0.99" d="M62.9703 44.229L62.73 42.9421C62.5768 42.1198 61.8531 41.5229 61.0091 41.5229C60.9032 41.5229 60.7964 41.5326 60.6913 41.5517L55.799 42.4434L58.0145 40.9739C58.5952 40.5889 58.8886 39.9002 58.762 39.2169C58.7268 39.0298 58.6609 38.8502 58.5654 38.6821L57.8949 37.5042C57.6652 37.0995 57.2734 36.7988 56.8212 36.6797C56.5997 36.6211 56.3682 36.608 56.1423 36.6372C56.389 35.2863 56.5162 33.9066 56.5162 32.5021C56.5162 31.8789 56.1384 31.3426 55.5989 31.1044C56.3039 29.4407 56.352 27.5361 55.6551 25.7919C55.5986 25.65 55.5147 25.5234 55.4061 25.4155C55.2983 25.3086 55.1722 25.2259 55.0291 25.1689C54.1939 24.8389 53.3162 24.6717 52.4203 24.6717C52.3058 24.6717 52.1917 24.6746 52.078 24.68C51.9502 22.1246 49.8184 20.0845 47.216 20.0845C46.8733 20.0845 46.5391 20.1207 46.2163 20.1881C46.4405 18.8574 46.3085 17.4654 45.7862 16.1584C45.7301 16.0148 45.6458 15.8858 45.5312 15.7704C45.421 15.661 45.2917 15.5766 45.1482 15.5201C44.2486 15.1646 43.3031 14.9844 42.3379 14.9844C40.884 14.9844 39.4932 15.39 38.2925 16.1439C37.8539 14.8832 37.1305 13.6997 36.1198 12.6946C35.8237 12.4004 35.43 12.2383 35.011 12.2383C34.592 12.2383 34.1983 12.4004 33.9019 12.6949L29.4337 17.138C28.6068 16.4063 27.5187 15.9689 26.3377 15.9689C26.0697 15.9689 25.7991 15.9922 25.5335 16.0381C24.5709 16.2043 23.6851 16.6718 23.006 17.3564C22.1352 16.9395 21.1376 16.7973 20.179 16.9628C19.9681 16.9992 19.7635 17.0505 19.5649 17.113V13.6892C19.5649 11.3314 17.6548 9.40979 15.2921 9.36926V7.42751C16.0153 7.30336 16.5676 6.67796 16.5676 5.92548V1.52596C16.5676 0.684606 15.8777 0 15.0295 0H7.52478C6.67662 0 5.9867 0.684606 5.9867 1.52596V5.92548C5.9867 6.67796 6.53893 7.30336 7.2622 7.42751V9.36902C4.89946 9.40943 2.98954 11.331 2.98954 13.6889V40.411C1.14704 42.0619 0 44.3654 0 46.9126C0 51.9234 4.43275 56 9.88149 56L46.8184 55.9893C48.0791 55.9888 49.2648 55.4391 50.0713 54.4812C50.8568 53.5488 51.1906 52.3377 50.9983 51.1433L58.3758 52.4587C58.4779 52.4769 58.5825 52.4861 58.6862 52.4861C59.0541 52.4861 59.4067 52.3741 59.7052 52.1624C60.089 51.8904 60.3487 51.4694 60.418 51.0076L60.6178 49.6773C60.6466 49.4867 60.6434 49.2948 60.6083 49.1067C60.4814 48.4265 59.9593 47.8868 59.2782 47.732L56.6779 47.1402L61.5654 46.2494C62.0263 46.1654 62.4262 45.9087 62.6915 45.5264C62.9563 45.1452 63.0552 44.6845 62.9703 44.229ZM52.4203 26.5026C52.9759 26.5026 53.5221 26.5899 54.0473 26.7619C54.5166 28.1797 54.3409 29.709 53.606 30.9722H51.12L51.9133 30.1833C52.2733 29.8254 52.2726 29.2457 51.9117 28.8885C51.5508 28.5313 50.9664 28.5319 50.6066 28.8899L50.1869 29.3073C49.9902 28.6646 49.6466 28.0891 49.1951 27.617C50.111 26.8955 51.2354 26.5026 52.4203 26.5026ZM47.216 21.9155C48.8826 21.9155 50.2385 23.2646 50.2385 24.9231C50.2385 24.9538 50.237 24.9842 50.2361 25.0147C49.2633 25.3286 48.3667 25.8529 47.602 26.565C47.4803 26.5192 47.3569 26.4767 47.2301 26.4419C46.9602 24.9951 45.9774 23.8354 44.6791 23.2937C45.2179 22.4655 46.1529 21.9155 47.216 21.9155ZM42.3378 16.8153C42.9646 16.8153 43.5806 16.9159 44.1741 17.1149C44.6512 18.5222 44.5537 20.0339 43.9459 21.3433C43.4462 21.7948 43.0408 22.3478 42.7637 22.9695C42.5989 22.979 42.4341 22.9971 42.2714 23.0251C41.5482 23.15 40.8739 23.4613 40.3096 23.9128C40.1172 23.5636 39.8816 23.2415 39.6116 22.9514L41.7279 20.847C42.0879 20.4891 42.0872 19.9094 41.7263 19.5523C41.3655 19.1951 40.7811 19.1957 40.4211 19.5538L38.1081 21.8538C37.6679 21.6474 37.1922 21.5038 36.6923 21.4367C36.9083 20.3441 37.4426 19.3146 38.2693 18.4925C39.3569 17.4109 40.8018 16.8153 42.3378 16.8153ZM35.2663 30.9722H34.4664C34.3317 30.6321 33.9986 30.391 33.6079 30.391C33.2172 30.391 32.8841 30.6322 32.7494 30.9722H31.8084C32.0269 30.6192 31.9827 30.1514 31.6742 29.8459C31.3135 29.4887 30.7291 29.4893 30.3691 29.8473L29.4993 30.7121C29.4211 30.7897 29.3611 30.8782 29.3169 30.9722H27.4386C26.7352 29.9012 26.3058 28.6371 26.255 27.2772H40.8958C40.845 28.6371 40.4157 29.9012 39.7122 30.9722H37.7576C37.7136 30.8782 37.6533 30.7896 37.5753 30.7119L36.7056 29.8471C36.3454 29.4893 35.7613 29.4884 35.4006 29.8457C35.0918 30.1511 35.0477 30.619 35.2663 30.9722ZM33.12 25.446C33.4679 24.167 34.6438 23.2233 36.0375 23.2233C37.4312 23.2233 38.6072 24.1672 38.955 25.446H33.12ZM35.0072 14.188C35.885 15.1292 36.4654 16.2467 36.75 17.4213C36.2789 17.9293 35.8875 18.4906 35.5787 19.0879C35.4386 19.0027 35.2743 18.9528 35.098 18.9528H33.8683C33.3586 18.9528 32.9454 19.3627 32.9454 19.8683C32.9454 20.374 33.3586 20.7839 33.8683 20.7839H34.947C34.8864 21.0367 34.8392 21.2926 34.805 21.5504C34.4386 21.6459 34.0887 21.7819 33.7611 21.955C33.146 20.9019 32.1274 20.117 30.9206 19.8022C30.9202 19.7996 30.9197 19.7971 30.9192 19.7945C30.8469 19.3802 30.7206 18.9871 30.5485 18.6217L35.0072 14.188ZM18.3248 22.4497C18.2707 22.2995 18.2297 22.1454 18.2027 21.9909C17.9381 20.477 18.9667 19.0307 20.4953 18.7666C20.6565 18.7388 20.8203 18.7246 20.982 18.7246C21.59 18.7246 22.171 18.917 22.6621 19.2809C22.8652 19.4316 23.1221 19.4925 23.3722 19.4495C23.6222 19.4064 23.8433 19.2632 23.9836 19.0534C24.4168 18.405 25.0797 17.9748 25.85 17.8418C26.0115 17.8138 26.1757 17.7998 26.3377 17.7998C27.705 17.7998 28.8671 18.7703 29.1006 20.1076C29.1274 20.2608 29.1412 20.4205 29.1414 20.5823C29.1423 21.0562 29.5076 21.4512 29.9836 21.4927C31.0153 21.5827 31.8936 22.2269 32.3008 23.1344C31.7557 23.7835 31.3778 24.576 31.2343 25.446H25.9714C25.317 25.446 24.7556 25.8468 24.5214 26.414C23.3636 25.6316 21.999 25.2101 20.5689 25.2101C19.673 25.2101 18.7953 25.3774 17.9596 25.7075C17.8179 25.7637 17.6911 25.8466 17.5831 25.9538C17.4736 26.0624 17.3895 26.1897 17.3344 26.3294C17.122 26.8608 16.9804 27.4071 16.9039 27.9568C16.5731 27.5832 16.3401 27.1187 16.249 26.5975C16.032 25.3552 16.6874 24.1183 17.8425 23.5895C18.2766 23.3907 18.4859 22.8961 18.3248 22.4497ZM21.0759 30.7218L21.3276 30.9722H19.1112C18.6136 29.8269 18.538 28.5232 18.942 27.3005C19.4679 27.1283 20.0139 27.0411 20.5689 27.0411C21.9595 27.0411 23.2676 27.5803 24.2521 28.5592C24.383 28.6895 24.5049 28.826 24.6195 28.967C24.7759 29.6694 25.0162 30.3405 25.3258 30.9721H23.935L22.3825 29.4283C22.0224 29.0705 21.438 29.0695 21.0775 29.4268C20.7166 29.7842 20.7158 30.3639 21.0759 30.7218ZM17.1458 30.9722H13.8559C14.0026 30.0853 14.5403 29.3293 15.2867 28.8835C15.7285 29.4708 16.3052 29.9457 16.9697 30.2673C17.0167 30.5049 17.0744 30.7404 17.1458 30.9722ZM7.83239 1.83115H14.7219V5.62029H7.83239V1.83115ZM13.4464 7.45144V9.36719H9.10802V7.45144H13.4464ZM4.83535 17.402H10.8281C11.3379 17.402 11.7509 16.9921 11.7509 16.4865C11.7509 15.9808 11.3379 15.5709 10.8281 15.5709H4.83535V13.6889C4.83535 12.3156 5.95803 11.1983 7.33799 11.1983H15.2164C16.5965 11.1983 17.7192 12.3156 17.7192 13.6889V15.5709H15.996C15.4862 15.5709 15.0732 15.9808 15.0732 16.4865C15.0732 16.9921 15.4862 17.402 15.996 17.402H17.7192V18.2147C16.6618 19.2432 16.1127 20.7515 16.3839 22.3029C16.3844 22.306 16.385 22.3092 16.3855 22.3123C14.905 23.3201 14.1161 25.1117 14.4303 26.9102C14.4486 27.0152 14.4716 27.1185 14.4967 27.2207C14.0357 27.4729 13.6216 27.7986 13.2667 28.1797H4.83535V17.402ZM4.83523 30.0107H12.1951C12.0972 30.3193 12.028 30.6405 11.9943 30.9722H11.8388C10.9894 30.9722 10.2982 31.6584 10.2982 32.5018C10.2982 33.9556 10.4345 35.3828 10.6984 36.7791C10.4332 36.758 10.1613 36.7467 9.88469 36.7467C8.76866 36.7467 7.70529 36.9223 6.89084 37.2415C5.645 37.7295 5.30059 38.4225 5.22541 38.9021C5.09338 38.9672 4.96369 39.0361 4.83523 39.1065V30.0107ZM16.5211 41.2583C16.8534 41.5221 17.0566 41.7463 17.1743 41.9081C17.1632 41.9082 17.1517 41.9083 17.14 41.9083C16.6177 41.9083 15.6792 41.6994 14.612 41.1134C14.2147 40.895 13.8486 40.6482 13.5533 40.4001C13.209 40.1106 12.7042 40.1109 12.3601 40.4002C12.0648 40.6486 11.6989 40.8952 11.3019 41.1131C10.2345 41.6994 9.29603 41.9083 8.77382 41.9083C8.76189 41.9083 8.75044 41.9082 8.73925 41.9081C8.85688 41.7463 9.06003 41.5219 9.3925 41.258C9.68301 41.0273 9.80544 40.6459 9.70295 40.291C9.60033 39.936 9.29296 39.6769 8.9232 39.6339C8.02262 39.5292 7.45317 39.3017 7.18652 39.1362C7.5206 38.9298 8.36519 38.5778 9.88505 38.5778C11.1438 38.5778 12.0638 38.8404 12.5051 39.0863C12.7858 39.2425 13.1279 39.2425 13.4086 39.0864C13.8501 38.8405 14.7702 38.5779 16.029 38.5779C17.549 38.5779 18.3935 38.93 18.7274 39.1363C18.4609 39.302 17.8913 39.5293 16.9905 39.634C16.6207 39.6771 16.3132 39.9362 16.2107 40.2913C16.1079 40.6463 16.2303 41.0277 16.5211 41.2583ZM14.675 52.4022L14.7068 52.5718C14.8165 53.1599 15.048 53.6996 15.3713 54.1688H9.88149C5.45059 54.1688 1.8457 50.9138 1.8457 46.9126C1.8457 44.1782 3.52996 41.7933 6.01008 40.5567C6.29493 40.7676 6.65004 40.9495 7.07135 41.0963C6.90426 41.3794 6.78785 41.6838 6.76041 42.0013C6.72399 42.4235 6.85418 42.8244 7.12734 43.1303C7.48823 43.5346 8.04219 43.7396 8.77382 43.7396C9.74884 43.7396 11.0282 43.3566 12.1959 42.7152C12.4647 42.5677 12.7189 42.4118 12.9569 42.2489C13.1948 42.4116 13.449 42.5675 13.7179 42.7154C14.8857 43.3566 16.165 43.7395 17.14 43.7396H17.1401C17.8715 43.7396 18.4255 43.5346 18.7862 43.1304C19.0595 42.8245 19.1898 42.4236 19.1533 42.0013C19.1258 41.6838 19.0094 41.3794 18.8423 41.0963C19.2637 40.9494 19.6189 40.7675 19.9037 40.5567C21.8706 41.5374 23.3362 43.2405 23.8588 45.2674L17.3318 47.7274C15.4213 48.4476 14.3039 50.4135 14.675 52.4022ZM48.6548 53.3072C48.1997 53.8478 47.53 54.1579 46.8176 54.1581L45.8489 54.1585L45.2438 50.9167C45.1509 50.4195 44.6697 50.0908 44.1682 50.1832C43.6672 50.2752 43.3361 50.7529 43.4289 51.2501L43.972 54.1591L40.7966 54.1603L40.3875 51.9682C40.2946 51.471 39.8133 51.1426 39.312 51.2346C38.8109 51.3267 38.4798 51.8043 38.5726 52.3016L38.9196 54.161L31.5337 54.1638L30.9778 51.1866C30.8848 50.6894 30.4037 50.361 29.9022 50.4532C29.4011 50.5452 29.0701 51.0231 29.1629 51.5203L29.6566 54.1646L18.8724 54.1687C18.8721 54.1687 18.8719 54.1687 18.8716 54.1687C17.7184 54.1687 16.7301 53.3569 16.5212 52.238L16.4894 52.0683C16.2809 50.9505 16.9106 49.8449 17.9869 49.4391L21.614 48.0721L21.8842 49.5189C21.9665 49.9598 22.3543 50.2679 22.7904 50.2679C22.8463 50.2679 22.9029 50.2628 22.9597 50.2524C23.4608 50.1602 23.7918 49.6825 23.6989 49.1853L23.3675 47.4112L28.7514 45.382C29.2278 45.2024 29.4674 44.6736 29.2864 44.2009C29.1054 43.7281 28.5717 43.4906 28.096 43.6701L25.5907 44.6144C24.8879 42.1456 23.0823 40.0834 20.6879 38.9019C20.6127 38.4224 20.2683 37.7294 19.0226 37.2413C18.2082 36.9222 17.1448 36.7466 16.0288 36.7466C15.2607 36.7466 14.5272 36.8307 13.8798 36.9839V36.4309C13.8798 35.9252 13.4667 35.5153 12.9569 35.5153C12.7415 35.5153 12.5438 35.589 12.3867 35.7118C12.2411 34.7568 12.1597 33.7868 12.1462 32.8031H42.2049C42.7147 32.8031 43.1278 32.3932 43.1278 31.8875C43.1278 31.3819 42.7147 30.972 42.2049 30.972H41.8273C42.415 29.7712 42.7469 28.4249 42.7469 27.0021C42.7469 26.1944 42.1239 25.5289 41.3301 25.4534C41.6757 25.13 42.1071 24.9119 42.588 24.8288C42.7288 24.8045 42.8718 24.7922 43.0131 24.7922C44.2045 24.7922 45.217 25.6378 45.4204 26.8027C45.4439 26.9376 45.4559 27.0767 45.456 27.2165C45.4567 27.6907 45.8221 28.0859 46.2982 28.1275C47.401 28.2235 48.3033 29.0464 48.4925 30.1285C48.5427 30.4163 48.5364 30.7002 48.4861 30.972H47.4959C46.9861 30.972 46.5731 31.3819 46.5731 31.8875C46.5731 32.3932 46.9861 32.8031 47.4959 32.8031H54.6685C54.6456 34.4826 54.4276 36.1232 54.0209 37.715L49.0196 40.6441C48.7137 39.5879 48.0027 38.692 47.0232 38.148C45.9245 37.538 44.6188 37.4426 43.4413 37.8864L33.1409 41.7687C32.6644 41.9482 32.4249 42.4771 32.6059 42.9498C32.7869 43.4226 33.3205 43.6599 33.7963 43.4805L35.1532 42.9692L35.5746 45.226C35.6569 45.6668 36.0447 45.9751 36.4809 45.9751C36.5367 45.9751 36.5933 45.9699 36.6501 45.9596C37.1511 45.8675 37.4823 45.3898 37.3895 44.8926L36.907 42.3082L44.0965 39.5985C44.7627 39.3475 45.5007 39.4014 46.1217 39.7462C46.7416 40.0904 47.1711 40.6836 47.3 41.3736L49.167 51.3735C49.2957 52.0632 49.109 52.7679 48.6548 53.3072ZM51.9475 46.1406C51.5169 46.2191 51.2013 46.5868 51.1916 47.021C51.182 47.4552 51.4813 47.8364 51.9079 47.9334L58.7788 49.497L58.6071 50.6395L50.6418 49.2194L49.3967 42.5498L56.3346 38.4866L56.9125 39.5019L51.0607 43.3829C50.6968 43.6242 50.5539 44.0859 50.7185 44.4883C50.883 44.8907 51.31 45.1231 51.7404 45.0446L60.9327 43.3693L61.1374 44.4656L51.9475 46.1406Z" fill="black"/>
</svg>
